<svg width="119" height="116" viewBox="0 0 119 116" fill="none" xmlns="http://www.w3.org/2000/svg">
<g id="Group">
<g id="Group_2">
<path id="Vector" d="M78.4742 14.5962C78.1572 14.5962 77.8412 14.599 77.5258 14.6047C69.6691 14.7474 62.0979 11.8911 55.9907 6.94649C50.5752 2.562 43.6644 -0.0484068 36.142 0.000680206C18.9766 0.112747 4.82962 14.605 5.11372 31.7683C5.19013 36.3899 6.2705 40.7669 8.146 44.6914C11.3415 51.3781 10.6524 59.3329 6.21215 65.2664C4.37834 67.7171 2.87748 70.4796 1.79873 73.5105C-3.94954 89.6622 4.54204 107.616 20.6812 113.399C37.1166 119.288 55.1401 110.583 60.7821 94.1215C61.2 92.9022 61.538 91.6748 61.7992 90.445C63.4575 82.6354 70.2704 77.0443 78.2542 77.0776C78.3276 77.0779 78.401 77.0781 78.4744 77.0781C100.608 77.0781 118.55 63.0911 118.55 45.8373C118.55 28.5834 100.607 14.5962 78.4742 14.5962Z" fill="url(#paint0_linear_313_30004)"/>
<g id="Group_3">
<path id="Vector_2" d="M99.2653 16.8167H98.4815V16.033C98.4815 15.3937 97.9633 14.8752 97.3238 14.8752C96.6843 14.8752 96.1661 15.3937 96.1661 16.033V16.8167H95.3823C94.7428 16.8167 94.2246 17.3352 94.2246 17.9744C94.2246 18.6137 94.7428 19.1322 95.3823 19.1322H96.1661V19.9157C96.1661 20.555 96.6843 21.0734 97.3238 21.0734C97.9633 21.0734 98.4815 20.555 98.4815 19.9157V19.1322H99.2653C99.9048 19.1322 100.423 18.6137 100.423 17.9744C100.423 17.3352 99.9046 16.8167 99.2653 16.8167Z" fill="#8383FF"/>
<path id="Vector_3" d="M87.7221 98.3721H86.9385V97.5884C86.9385 96.9491 86.4204 96.4307 85.7808 96.4307C85.1413 96.4307 84.6231 96.9491 84.6231 97.5884V98.3721H83.8394C83.1998 98.3721 82.6816 98.8906 82.6816 99.5299C82.6816 100.169 83.1998 100.688 83.8394 100.688H84.6231V101.471C84.6231 102.111 85.1413 102.629 85.7808 102.629C86.4204 102.629 86.9385 102.111 86.9385 101.471V100.688H87.7221C88.3616 100.688 88.8798 100.169 88.8798 99.5299C88.8798 98.8906 88.3616 98.3721 87.7221 98.3721Z" fill="#FF6C6C"/>
<path id="Vector_4" d="M95.3825 92.3275H94.5987V91.5438C94.5987 90.9045 94.0805 90.386 93.441 90.386C92.8015 90.386 92.2833 90.9045 92.2833 91.5438V92.3275H91.4995C90.86 92.3275 90.3418 92.846 90.3418 93.4852C90.3418 94.1245 90.86 94.643 91.4995 94.643H92.2833V95.4265C92.2833 96.0658 92.8015 96.5842 93.441 96.5842C94.0805 96.5842 94.5987 96.0658 94.5987 95.4265V94.643H95.3825C96.022 94.643 96.5402 94.1245 96.5402 93.4852C96.5402 92.846 96.022 92.3275 95.3825 92.3275Z" fill="#FF9D33"/>
<path id="Vector_5" d="M15.8219 79.3412C15.5255 79.3412 15.2294 79.2282 15.0031 79.0022L13.8804 77.8795L12.7576 79.0022C12.3054 79.4544 11.5726 79.4542 11.1204 79.0022C10.6682 78.55 10.6682 77.817 11.1204 77.365L13.0619 75.4237C13.5143 74.9718 14.2471 74.972 14.6991 75.4237L16.6404 77.365C17.0926 77.8172 17.0926 78.5502 16.6404 79.0022C16.4144 79.228 16.1182 79.3412 15.8219 79.3412Z" fill="#FF6C6C"/>
<path id="Vector_6" d="M89.6635 11.8559C89.3673 11.8559 89.0707 11.7429 88.845 11.5169L87.722 10.3942L86.5995 11.5169C86.1473 11.9691 85.4144 11.9694 84.9622 11.5169C84.51 11.0647 84.51 10.3319 84.962 9.87969L86.9032 7.93821C87.1204 7.72102 87.415 7.599 87.722 7.599C88.029 7.599 88.3235 7.72102 88.5405 7.93798L90.482 9.87946C90.9342 10.3317 90.9342 11.0647 90.482 11.5167C90.2562 11.7429 89.9596 11.8559 89.6635 11.8559Z" fill="#FF9D33"/>
<g id="Group_4">
<path id="Vector_7" opacity="0.1" d="M98.4527 35.2817H77.4449V19.5917C77.4449 17.4828 75.7352 15.7731 73.6263 15.7731H26.8107C24.7018 15.7731 22.9921 17.4828 22.9921 19.5917V27.4423H18.9351C18.2958 27.4423 17.7773 27.9608 17.7773 28.6001V50.3199C17.7773 50.9592 18.2958 51.4776 18.9351 51.4776H22.9924V104.177C22.9924 106.286 24.7021 107.996 26.811 107.996H73.6265C75.7354 107.996 77.4451 106.286 77.4451 104.177V87.2442H98.4529C99.7318 87.2442 100.768 86.2076 100.768 84.9287V37.5971C100.768 36.3185 99.7315 35.2817 98.4527 35.2817Z" fill="#2626BC"/>
<g id="Group_5">
<g id="Group_6">
<path id="Vector_8" d="M22.9922 97.3037V12.7183C22.9922 10.6094 24.7019 8.89972 26.8108 8.89972H73.6263C75.7352 8.89972 77.4449 10.6094 77.4449 12.7183V97.3035C77.4449 99.4124 75.7352 101.122 73.6263 101.122H26.8108C24.7019 101.122 22.9922 99.4126 22.9922 97.3037Z" fill="white"/>
<g id="Group_7">
<path id="Vector_9" d="M22.9941 16.5389H77.4459V93.485H22.9941V16.5389Z" fill="white"/>
</g>
<path id="Vector_10" d="M77.444 33.6708V85.6335H65.3413C64.7022 85.6335 64.1234 85.3742 63.7043 84.9551C63.2852 84.536 63.0259 83.9571 63.0259 83.3181C63.0259 84.5962 61.9885 85.6335 60.7104 85.6335H41.5295V49.8672H22.9922V25.8331H43.2637C43.9028 25.8331 44.4214 26.3517 44.4214 26.9908V33.6708H57.2373C58.8373 33.6708 60.2821 34.3191 61.331 35.3657C62.3775 36.4146 63.0259 37.8594 63.0259 39.4593C63.0259 36.2641 65.6191 33.6708 68.8144 33.6708H77.444Z" fill="white"/>
</g>
<g id="Group_8">
<path id="Vector_11" d="M62.7848 14.346C63.4005 14.346 63.8997 13.8469 63.8997 13.2311C63.8997 12.6154 63.4005 12.1163 62.7848 12.1163C62.1691 12.1163 61.6699 12.6154 61.6699 13.2311C61.6699 13.8469 62.1691 14.346 62.7848 14.346Z" fill="white"/>
<path id="Vector_12" d="M66.5621 14.346C67.1779 14.346 67.677 13.8469 67.677 13.2311C67.677 12.6154 67.1779 12.1163 66.5621 12.1163C65.9464 12.1163 65.4473 12.6154 65.4473 13.2311C65.4473 13.8469 65.9464 14.346 66.5621 14.346Z" fill="white"/>
</g>
</g>
<g id="Group_9">
<g id="Group_10">
<path id="Vector_13" d="M63.0237 34.8191V78.6778C63.0237 79.9559 61.9864 80.9932 60.7083 80.9932H41.5273V29.0305H57.2352C60.4328 29.0305 63.0237 31.6215 63.0237 34.8191Z" fill="#C8EEDF"/>
<path id="Vector_14" d="M44.4193 29.0305V48.7093C44.4193 49.3507 43.9007 49.867 43.2616 49.867H41.5273V29.0305H44.4193Z" fill="#EBEBFF"/>
<g id="Group_11">
<g id="Group_12">
<path id="Vector_15" d="M41.5254 58.3964H56.3705C57.01 58.3964 57.5282 58.9148 57.5282 59.5541C57.5282 60.1934 57.01 60.7118 56.3705 60.7118H41.5254V58.3964Z" fill="#2EC591"/>
</g>
<g id="Group_13">
<path id="Vector_16" d="M41.5254 62.9121H56.3705C57.01 62.9121 57.5282 63.4305 57.5282 64.0698C57.5282 64.7091 57.01 65.2275 56.3705 65.2275H41.5254V62.9121Z" fill="#2EC591"/>
</g>
<g id="Group_14">
<path id="Vector_17" d="M41.5254 67.4279H56.3705C57.01 67.4279 57.5282 67.9463 57.5282 68.5856C57.5282 69.2249 57.01 69.7433 56.3705 69.7433H41.5254V67.4279Z" fill="#2EC591"/>
</g>
<g id="Group_15">
<path id="Vector_18" d="M41.5254 71.9434H56.3705C57.01 71.9434 57.5282 72.4618 57.5282 73.1011C57.5282 73.7404 57.01 74.2588 56.3705 74.2588H41.5254V71.9434Z" fill="#2EC591"/>
</g>
</g>
<path id="Vector_19" d="M65.3389 80.9925H98.4492C99.728 80.9925 100.765 79.9559 100.765 78.6771V31.3455C100.765 30.0666 99.728 29.03 98.4492 29.03H68.812C65.6151 29.03 63.0234 31.6217 63.0234 34.8186V78.6771C63.0234 79.9557 64.0603 80.9925 65.3389 80.9925Z" fill="#C8EEDF"/>
</g>
<g id="Group_16">
<g id="Group_17">
<g id="Group_18">
<g id="Group_19">
<path id="Vector_20" d="M79.6426 38.1332H69.5659C68.9264 38.1332 68.4082 37.6147 68.4082 36.9755C68.4082 36.3362 68.9264 35.8177 69.5659 35.8177H79.6426C80.2822 35.8177 80.8004 36.3362 80.8004 36.9755C80.8004 37.6147 80.2822 38.1332 79.6426 38.1332Z" fill="#FF6C6C"/>
</g>
<g id="Group_20">
<path id="Vector_21" d="M79.6426 42.649H69.5659C68.9264 42.649 68.4082 42.1306 68.4082 41.4913C68.4082 40.852 68.9264 40.3336 69.5659 40.3336H79.6426C80.2822 40.3336 80.8004 40.852 80.8004 41.4913C80.8004 42.1306 80.2822 42.649 79.6426 42.649Z" fill="#FF6C6C"/>
</g>
<g id="Group_21">
<path id="Vector_22" d="M79.6426 47.1645H69.5659C68.9264 47.1645 68.4082 46.6461 68.4082 46.0068C68.4082 45.3675 68.9264 44.8491 69.5659 44.8491H79.6426C80.2822 44.8491 80.8004 45.3675 80.8004 46.0068C80.8004 46.6461 80.2822 47.1645 79.6426 47.1645Z" fill="#FF6C6C"/>
</g>
<g id="Group_22">
<path id="Vector_23" d="M79.6426 51.6804H69.5659C68.9264 51.6804 68.4082 51.1619 68.4082 50.5226C68.4082 49.8834 68.9264 49.3649 69.5659 49.3649H79.6426C80.2822 49.3649 80.8004 49.8834 80.8004 50.5226C80.8004 51.1619 80.2822 51.6804 79.6426 51.6804Z" fill="#FF6C6C"/>
</g>
<g id="Group_23">
<path id="Vector_24" d="M79.6426 56.1961H69.5659C68.9264 56.1961 68.4082 55.6777 68.4082 55.0384C68.4082 54.3991 68.9264 53.8807 69.5659 53.8807H79.6426C80.2822 53.8807 80.8004 54.3991 80.8004 55.0384C80.8004 55.6777 80.2822 56.1961 79.6426 56.1961Z" fill="#FF6C6C"/>
</g>
</g>
<g id="Group_24">
<g id="Group_25">
<path id="Vector_25" d="M94.2208 38.1332H84.144C83.5045 38.1332 82.9863 37.6147 82.9863 36.9755C82.9863 36.3362 83.5045 35.8177 84.144 35.8177H94.2208C94.8603 35.8177 95.3785 36.3362 95.3785 36.9755C95.3785 37.6147 94.8603 38.1332 94.2208 38.1332Z" fill="#FF6C6C"/>
</g>
<g id="Group_26">
<path id="Vector_26" d="M94.2208 42.649H84.144C83.5045 42.649 82.9863 42.1306 82.9863 41.4913C82.9863 40.852 83.5045 40.3336 84.144 40.3336H94.2208C94.8603 40.3336 95.3785 40.852 95.3785 41.4913C95.3785 42.1306 94.8603 42.649 94.2208 42.649Z" fill="#FF6C6C"/>
</g>
<g id="Group_27">
<path id="Vector_27" d="M94.2208 47.1645H84.144C83.5045 47.1645 82.9863 46.6461 82.9863 46.0068C82.9863 45.3675 83.5045 44.8491 84.144 44.8491H94.2208C94.8603 44.8491 95.3785 45.3675 95.3785 46.0068C95.3785 46.6461 94.8603 47.1645 94.2208 47.1645Z" fill="#FF6C6C"/>
</g>
<g id="Group_28">
<path id="Vector_28" d="M94.2208 51.6804H84.144C83.5045 51.6804 82.9863 51.1619 82.9863 50.5226C82.9863 49.8834 83.5045 49.3649 84.144 49.3649H94.2208C94.8603 49.3649 95.3785 49.8834 95.3785 50.5226C95.3785 51.1619 94.8603 51.6804 94.2208 51.6804Z" fill="#FF6C6C"/>
</g>
<g id="Group_29">
<path id="Vector_29" d="M94.2208 56.1961H84.144C83.5045 56.1961 82.9863 55.6777 82.9863 55.0384C82.9863 54.3991 83.5045 53.8807 84.144 53.8807H94.2208C94.8603 53.8807 95.3785 54.3991 95.3785 55.0384C95.3785 55.6777 94.8603 56.1961 94.2208 56.1961Z" fill="#FF6C6C"/>
</g>
</g>
</g>
<g id="Group_30">
<g id="Group_31">
<g id="Group_32">
<path id="Vector_30" d="M79.6426 60.7117H69.5659C68.9264 60.7117 68.4082 60.1933 68.4082 59.554C68.4082 58.9147 68.9264 58.3963 69.5659 58.3963H79.6426C80.2822 58.3963 80.8004 58.9147 80.8004 59.554C80.8004 60.1933 80.2822 60.7117 79.6426 60.7117Z" fill="#FF9D33"/>
</g>
<g id="Group_33">
<path id="Vector_31" d="M79.6426 65.2275H69.5659C68.9264 65.2275 68.4082 64.709 68.4082 64.0698C68.4082 63.4305 68.9264 62.912 69.5659 62.912H79.6426C80.2822 62.912 80.8004 63.4305 80.8004 64.0698C80.8004 64.709 80.2822 65.2275 79.6426 65.2275Z" fill="#FF9D33"/>
</g>
<g id="Group_34">
<path id="Vector_32" d="M79.6426 69.7432H69.5659C68.9264 69.7432 68.4082 69.2248 68.4082 68.5855C68.4082 67.9462 68.9264 67.4278 69.5659 67.4278H79.6426C80.2822 67.4278 80.8004 67.9462 80.8004 68.5855C80.8004 69.2248 80.2822 69.7432 79.6426 69.7432Z" fill="#FF9D33"/>
</g>
<g id="Group_35">
<path id="Vector_33" d="M79.6426 74.2588H69.5659C68.9264 74.2588 68.4082 73.7404 68.4082 73.1011C68.4082 72.4618 68.9264 71.9434 69.5659 71.9434H79.6426C80.2822 71.9434 80.8004 72.4618 80.8004 73.1011C80.8004 73.7404 80.2822 74.2588 79.6426 74.2588Z" fill="#FF9D33"/>
</g>
</g>
<g id="Group_36">
<g id="Group_37">
<path id="Vector_34" d="M94.2208 60.7117H84.144C83.5045 60.7117 82.9863 60.1933 82.9863 59.554C82.9863 58.9147 83.5045 58.3963 84.144 58.3963H94.2208C94.8603 58.3963 95.3785 58.9147 95.3785 59.554C95.3785 60.1933 94.8603 60.7117 94.2208 60.7117Z" fill="#FF9D33"/>
</g>
<g id="Group_38">
<path id="Vector_35" d="M94.2208 65.2275H84.144C83.5045 65.2275 82.9863 64.709 82.9863 64.0698C82.9863 63.4305 83.5045 62.912 84.144 62.912H94.2208C94.8603 62.912 95.3785 63.4305 95.3785 64.0698C95.3785 64.709 94.8603 65.2275 94.2208 65.2275Z" fill="#FF9D33"/>
</g>
<g id="Group_39">
<path id="Vector_36" d="M94.2208 69.7432H84.144C83.5045 69.7432 82.9863 69.2248 82.9863 68.5855C82.9863 67.9462 83.5045 67.4278 84.144 67.4278H94.2208C94.8603 67.4278 95.3785 67.9462 95.3785 68.5855C95.3785 69.2248 94.8603 69.7432 94.2208 69.7432Z" fill="#FF9D33"/>
</g>
<g id="Group_40">
<path id="Vector_37" d="M94.2208 74.2588H84.144C83.5045 74.2588 82.9863 73.7404 82.9863 73.1011C82.9863 72.4618 83.5045 71.9434 84.144 71.9434H94.2208C94.8603 71.9434 95.3785 72.4618 95.3785 73.1011C95.3785 73.7404 94.8603 74.2588 94.2208 74.2588Z" fill="#FF9D33"/>
</g>
</g>
</g>
</g>
</g>
<g id="Group_41">
<g id="Group_42">
<path id="Vector_38" d="M43.2641 45.2259H18.9351C18.2958 45.2259 17.7773 44.7075 17.7773 44.0682V22.3484C17.7773 21.7091 18.2958 21.1907 18.9351 21.1907H43.2641C43.9034 21.1907 44.4218 21.7091 44.4218 22.3484V44.0682C44.4218 44.7077 43.9034 45.2259 43.2641 45.2259Z" fill="#FEB45B"/>
<path id="Vector_39" d="M44.4218 27.8325V22.3484C44.4218 21.7091 43.9034 21.1907 43.2641 21.1907H18.9351C18.2958 21.1907 17.7773 21.7091 17.7773 22.3484V27.8325H44.4218Z" fill="white"/>
<path id="Vector_40" d="M98.4522 27.8724H78.6023V12.7184C78.6023 9.97436 76.37 7.74207 73.6263 7.74207H26.8107C24.0667 7.74207 21.8344 9.97436 21.8344 12.7184V20.033H18.9346C17.6578 20.033 16.6191 21.0717 16.6191 22.3484V44.0683C16.6191 45.345 17.6578 46.3837 18.9346 46.3837H21.8344V97.3038C21.8344 100.048 24.0667 102.28 26.8107 102.28H73.6263C76.3703 102.28 78.6023 100.048 78.6023 97.3038V80.9926C78.6023 80.3533 78.0841 79.8349 77.4446 79.8349H65.3421C64.7038 79.8349 64.1844 79.3155 64.1844 78.6771V34.8186C64.1844 32.2652 66.2618 30.1878 68.8153 30.1878H98.4522C99.0906 30.1878 99.6099 30.7071 99.6099 31.3455V78.6769C99.6099 79.3153 99.0906 79.8346 98.4522 79.8346H84.5298C83.8903 79.8346 83.3721 80.353 83.3721 80.9923C83.3721 81.6316 83.8903 82.15 84.5298 82.15H98.4522C100.367 82.15 101.925 80.592 101.925 78.6769V31.3455C101.925 29.4304 100.367 27.8724 98.4522 27.8724ZM18.9346 22.3487H43.2636V29.0308C43.2636 29.3378 43.3857 29.6323 43.6026 29.8495C43.8198 30.0667 44.1141 30.1885 44.4214 30.1885L57.2379 30.188C59.7914 30.188 61.8688 32.2654 61.8688 34.8189V78.6771C61.8688 79.3155 61.3494 79.8349 60.7111 79.8349H42.6871V64.7985V46.3837H43.2636C44.5404 46.3837 45.5791 45.345 45.5791 44.0683V36.116C45.5791 35.4767 45.0606 34.9582 44.4214 34.9582C43.7821 34.9582 43.2636 35.4767 43.2636 36.116V44.0683H18.9346V22.3487ZM65.3421 82.15H76.2869V97.3036C76.2869 98.7706 75.0933 99.9644 73.6263 99.9644H26.8107C25.3437 99.9644 24.1498 98.7709 24.1498 97.3036V46.3837H40.3719V64.7985V80.9923V85.5817C40.3719 86.221 40.8903 86.7394 41.5296 86.7394C42.1689 86.7394 42.6873 86.221 42.6873 85.5817V82.15H60.7113C61.6013 82.15 62.4115 81.8106 63.0267 81.2581C63.6417 81.8108 64.4521 82.15 65.3421 82.15ZM63.0265 30.985C61.781 29.1109 59.6517 27.8724 57.2377 27.8724L45.5788 27.8728V22.3484C45.5788 21.0717 44.5401 20.033 43.2634 20.033H24.1496V12.7184C24.1496 11.2513 25.3432 10.0575 26.8105 10.0575H73.626C75.0931 10.0575 76.2867 11.2511 76.2867 12.7184V27.8724H68.815C66.4012 27.8724 64.2719 29.1109 63.0265 30.985Z" fill="#737373"/>
</g>
<path id="Vector_41" d="M27.9922 32.8243V38.4547C27.9922 38.991 28.5741 39.3249 29.0371 39.0546L33.859 36.2393C34.3182 35.9712 34.3182 35.3076 33.859 35.0395L29.0371 32.2241C28.5741 31.9542 27.9922 32.2881 27.9922 32.8243Z" fill="white"/>
<g id="Group_43">
<path id="Vector_42" d="M22.2655 26.0187C22.713 26.0187 23.0759 25.6559 23.0759 25.2083C23.0759 24.7608 22.713 24.3979 22.2655 24.3979C21.8179 24.3979 21.4551 24.7608 21.4551 25.2083C21.4551 25.6559 21.8179 26.0187 22.2655 26.0187Z" fill="#FF6C6C"/>
<path id="Vector_43" d="M24.8514 26.0187C25.299 26.0187 25.6618 25.6559 25.6618 25.2083C25.6618 24.7608 25.299 24.3979 24.8514 24.3979C24.4038 24.3979 24.041 24.7608 24.041 25.2083C24.041 25.6559 24.4038 26.0187 24.8514 26.0187Z" fill="#FF6C6C"/>
<path id="Vector_44" d="M27.4354 26.0187C27.883 26.0187 28.2458 25.6559 28.2458 25.2083C28.2458 24.7608 27.883 24.3979 27.4354 24.3979C26.9878 24.3979 26.625 24.7608 26.625 25.2083C26.625 25.6559 26.9878 26.0187 27.4354 26.0187Z" fill="#FF6C6C"/>
</g>
</g>
</g>
</g>
</g>
</g>
<defs>
<linearGradient id="paint0_linear_313_30004" x1="69.9046" y1="-14.383" x2="44.8955" y2="148.871" gradientUnits="userSpaceOnUse">
<stop stop-color="#E0F4F5"/>
<stop offset="0.9981" stop-color="#8FE1E3"/>
</linearGradient>
</defs>
</svg>
