<svg width="6" height="22" viewBox="0 0 6 22" fill="none" xmlns="http://www.w3.org/2000/svg">
<g id="Group">
<path id="Vector" d="M3 16.9847C3.77445 16.9847 4.41911 16.3914 4.48433 15.6196L5.49121 3.59421C5.54982 2.89677 5.31335 2.20731 4.83994 1.69236C4.36711 1.17807 3.69939 0.88501 3 0.88501C2.30062 0.88501 1.63289 1.17807 1.16002 1.69236C0.686533 2.20731 0.45018 2.89677 0.508793 3.59421L1.51567 15.6196C1.58089 16.3914 2.22555 16.9847 3 16.9847Z" fill="#3498DB"/>
<path id="Vector_2" d="M2.99959 17.8698C2.10329 17.8698 1.37695 18.5961 1.37695 19.4924C1.37695 20.3887 2.10329 21.115 2.99959 21.115C3.8959 21.115 4.62223 20.3887 4.62223 19.4924C4.62223 18.5961 3.8959 17.8698 2.99959 17.8698Z" fill="#3498DB"/>
</g>
</svg>
