<svg width="18" height="18" viewBox="0 0 18 18" fill="none" xmlns="http://www.w3.org/2000/svg">
<g id="Icon">
<g id="Group">
<g id="solid">
<path id="Vector" fill-rule="evenodd" clip-rule="evenodd" d="M1.91686 14.4046C1.40825 14.4046 0.920731 14.6065 0.561639 14.9662C0.201908 15.3253 0 15.8129 0 16.3215V17.2773C0 17.63 0.286251 17.9163 0.638954 17.9163H4.47267C4.82538 17.9163 5.11163 17.63 5.11163 17.2773V16.3215C5.11163 15.8129 4.90972 15.3253 4.54999 14.9662C4.1909 14.6065 3.70337 14.4046 3.19477 14.4046V11.4379H12.9759C13.4877 11.4379 13.979 11.2328 14.3388 10.8686L17.4466 7.72499C17.8038 7.36334 18.0032 6.87454 18 6.36657C17.9974 5.85796 17.7923 5.37172 17.4307 5.01391L14.3317 1.95076C13.9733 1.59614 13.4889 1.39743 12.9842 1.39743H3.19477V0.722694C3.19477 0.369991 2.90852 0.0837402 2.55581 0.0837402C2.20311 0.0837402 1.91686 0.369991 1.91686 0.722694V14.4046ZM5.50267 6.59468L7.69428 8.78629C7.94411 9.03612 8.34857 9.03612 8.5984 8.78629L12.4321 4.95257C12.6813 4.70337 12.6813 4.29828 12.4321 4.04908C12.1823 3.79989 11.7778 3.79989 11.528 4.04908L8.14666 7.43106L6.40615 5.69119C6.15696 5.44136 5.75186 5.44136 5.50267 5.69119C5.25348 5.94039 5.25348 6.34548 5.50267 6.59468Z" fill="#34C759"/>
</g>
</g>
</g>
</svg>
