<svg width="16" height="20" viewBox="0 0 16 20" fill="none" xmlns="http://www.w3.org/2000/svg">
<g id="Icon">
<path id="Vector" fill-rule="evenodd" clip-rule="evenodd" d="M7.54545 15.6818H14.8182C15.1945 15.6818 15.5 15.3763 15.5 15V1.81814C15.5 1.39632 15.3327 0.991779 15.0336 0.693597C14.7355 0.394507 14.3309 0.227234 13.9091 0.227234C11.6882 0.227234 5.95364 0.227234 3 0.227234C2.33727 0.227234 1.70091 0.49087 1.23182 0.959052C0.763636 1.42814 0.5 2.06451 0.5 2.72723V16.8181C0.5 17.1945 0.805455 17.5 1.18182 17.5C1.55818 17.5 1.86364 17.1945 1.86364 16.8181C1.86364 16.8181 1.86364 6.90178 1.86364 2.72723C1.86364 2.42542 1.98364 2.13723 2.19636 1.9236C2.41 1.71087 2.69818 1.59087 3 1.59087H13.9091C13.9691 1.59087 14.0273 1.61451 14.07 1.65723C14.1127 1.69996 14.1364 1.75814 14.1364 1.81814V14.3181H7.54545C7.16909 14.3181 6.86364 14.6236 6.86364 15C6.86364 15.3763 7.16909 15.6818 7.54545 15.6818Z" fill="#3498DB"/>
<path id="Vector_2" fill-rule="evenodd" clip-rule="evenodd" d="M7.54545 14.3182H3.22727C1.72091 14.3182 0.5 15.5391 0.5 17.0455C0.5 17.7691 0.787273 18.4628 1.29909 18.9737C1.81 19.4855 2.50364 19.7728 3.22727 19.7728H13.9091C14.3309 19.7728 14.7355 19.6055 15.0336 19.3064C15.3327 19.0082 15.5 18.6037 15.5 18.1819C15.5 17.5491 15.5 16.8182 15.5 16.8182C15.5 16.4419 15.1945 16.1364 14.8182 16.1364C14.4418 16.1364 14.1364 16.4419 14.1364 16.8182V18.1819C14.1364 18.2419 14.1127 18.3001 14.07 18.3428C14.0273 18.3855 13.9691 18.4091 13.9091 18.4091H3.22727C2.86545 18.4091 2.51909 18.2655 2.26273 18.0101C2.00727 17.7537 1.86364 17.4073 1.86364 17.0455C1.86364 16.2928 2.47455 15.6819 3.22727 15.6819H7.54545C7.92182 15.6819 8.22727 15.3764 8.22727 15.0001C8.22727 14.6237 7.92182 14.3182 7.54545 14.3182Z" fill="#3498DB"/>
<path id="Vector_3" fill-rule="evenodd" clip-rule="evenodd" d="M4.81854 5.22734H11.1822C11.5585 5.22734 11.864 4.92189 11.864 4.54553C11.864 4.16916 11.5585 3.86371 11.1822 3.86371H4.81854C4.44217 3.86371 4.13672 4.16916 4.13672 4.54553C4.13672 4.92189 4.44217 5.22734 4.81854 5.22734Z" fill="#3498DB"/>
</g>
</svg>
