<svg width="18" height="20" viewBox="0 0 18 20" fill="none" xmlns="http://www.w3.org/2000/svg">
<g id="Group">
<path id="Vector" d="M2.07617 18.6538C2.07615 18.7448 2.09404 18.8348 2.12882 18.9188C2.16361 19.0028 2.2146 19.0791 2.27889 19.1434C2.34318 19.2077 2.41951 19.2587 2.50352 19.2935C2.58752 19.3283 2.67756 19.3462 2.76848 19.3461H15.23C15.321 19.3462 15.411 19.3283 15.495 19.2935C15.579 19.2587 15.6553 19.2077 15.7196 19.1434C15.7839 19.0791 15.8349 19.0028 15.8697 18.9188C15.9045 18.8348 15.9224 18.7448 15.9223 18.6538V16.5769H2.07617V18.6538Z" fill="#34C759"/>
<path id="Vector_2" d="M17.7279 4.94964C17.6247 4.87131 17.5017 4.82335 17.3728 4.81116C17.2438 4.79898 17.1141 4.82305 16.9981 4.88068L12.1326 7.31322L9.64295 1.08921C9.59157 0.960683 9.50285 0.850508 9.38824 0.772899C9.27364 0.69529 9.1384 0.653809 8.99999 0.653809C8.86158 0.653809 8.72635 0.69529 8.61174 0.772899C8.49713 0.850508 8.40842 0.960683 8.35704 1.08921L5.86736 7.31322L1.00194 4.88068C0.886002 4.82269 0.756118 4.79842 0.627069 4.81063C0.49802 4.82284 0.374991 4.87103 0.271988 4.94973C0.168985 5.02843 0.0901467 5.13446 0.0444478 5.25576C-0.00125119 5.37707 -0.0119745 5.50876 0.0134987 5.63586L1.92478 15.1923H16.0752L17.9865 5.63586C18.012 5.50874 18.0013 5.37701 17.9555 5.25569C17.9098 5.13436 17.8309 5.02832 17.7279 4.94964ZM8.99999 12.4231C8.58901 12.3722 8.21417 12.1628 7.95548 11.8394C7.69679 11.5161 7.57473 11.1044 7.61538 10.6923C7.57473 10.2802 7.69678 9.86849 7.95547 9.54513C8.21416 9.22176 8.58901 9.01232 8.99999 8.96151C9.41098 9.01231 9.78583 9.22175 10.0445 9.54512C10.3032 9.86849 10.4253 10.2802 10.3846 10.6923C10.4253 11.1044 10.3032 11.5161 10.0445 11.8394C9.78582 12.1628 9.41098 12.3722 8.99999 12.4231Z" fill="#34C759"/>
</g>
</svg>
