<svg width="173" height="169" viewBox="0 0 173 169" fill="none" xmlns="http://www.w3.org/2000/svg">
<circle cx="89" cy="85" r="84" fill="url(#paint0_linear_313_29974)"/>
<circle cx="27" cy="87" r="3" fill="#E1E7F5"/>
<circle cx="33.5" cy="95.5" r="2.5" fill="#E1E7F5"/>
<circle cx="155" cy="98" r="3" fill="#E1E7F5"/>
<circle cx="52.5" cy="53.5" r="4.5" fill="#E1E7F5"/>
<g filter="url(#filter0_d_313_29974)">
<path d="M63.4202 29.9904C62.8483 28.1069 61.9025 26.4643 60.6487 25.1284C59.043 23.3106 56.9094 22.0622 54.5118 21.5147C53.3021 16.0395 49.9147 12.0973 45.0975 10.6299C39.8625 9.00927 33.7915 10.5861 29.9862 14.5502C26.6428 18.0325 25.543 22.8288 26.8408 27.9317C22.4416 29.0049 20.264 32.6623 20.022 36.1446C20 36.3855 20 36.6045 20 36.8235C20 40.9409 22.7055 45.562 28.7324 46H51.5644C54.6878 46 57.6793 44.8392 59.9669 42.7587C63.5522 39.6268 64.872 34.7429 63.4202 29.9904Z" fill="white"/>
</g>
<path d="M126.759 61.0002H106.816C104.399 61.0002 102.204 62.4101 101.198 64.608L100.181 66.8294L63.9627 66.8301C60.7757 66.8301 58.0799 69.1848 57.6515 72.3419L57.1352 76.1429H48.9198C45.9397 76.1429 43.6447 78.7714 44.0456 81.7238L50.1992 125.382H123.398L131.633 66.5802C132.035 63.6285 129.74 61 126.76 61L126.759 61.0002ZM125.104 78.0377L120.857 107.334L117.064 80.3982C116.733 77.9601 114.65 76.1423 112.189 76.1423L62.7422 76.143C63.2935 74.4379 64.8873 73.2363 66.7321 73.2363H120.948C123.506 73.2363 125.47 75.5048 125.103 78.0371L125.104 78.0377Z" fill="url(#paint1_linear_313_29974)"/>
<rect x="71" y="100" width="24" height="4" rx="2" fill="white"/>
<rect x="42" y="125" width="12" height="2" rx="1" fill="#CAD2E5"/>
<rect x="57" y="125" width="72" height="2" rx="1" fill="#CAD2E5"/>
<circle cx="148.5" cy="39.5" r="18.5" fill="#E9ECF4"/>
<path d="M148.906 46.2197C152.123 46.2197 154.074 43.6973 154.074 39.6631V39.6455C154.074 35.6113 152.123 33.0977 148.906 33.0977C145.689 33.0977 143.738 35.6113 143.738 39.6455V39.6631C143.738 43.6973 145.689 46.2197 148.906 46.2197ZM148.906 44.0928C147.324 44.0928 146.419 42.4492 146.419 39.6631V39.6455C146.419 36.8594 147.324 35.2246 148.906 35.2246C150.488 35.2246 151.394 36.8594 151.394 39.6455V39.6631C151.394 42.4492 150.488 44.0928 148.906 44.0928Z" fill="#7E8CA0"/>
<defs>
<filter id="filter0_d_313_29974" x="0" y="0" width="84" height="76" filterUnits="userSpaceOnUse" color-interpolation-filters="sRGB">
<feFlood flood-opacity="0" result="BackgroundImageFix"/>
<feColorMatrix in="SourceAlpha" type="matrix" values="0 0 0 0 0 0 0 0 0 0 0 0 0 0 0 0 0 0 127 0" result="hardAlpha"/>
<feOffset dy="10"/>
<feGaussianBlur stdDeviation="10"/>
<feComposite in2="hardAlpha" operator="out"/>
<feColorMatrix type="matrix" values="0 0 0 0 0.898542 0 0 0 0 0.912451 0 0 0 0 0.945833 0 0 0 1 0"/>
<feBlend mode="normal" in2="BackgroundImageFix" result="effect1_dropShadow_313_29974"/>
<feBlend mode="normal" in="SourceGraphic" in2="effect1_dropShadow_313_29974" result="shape"/>
</filter>
<linearGradient id="paint0_linear_313_29974" x1="89" y1="1" x2="89" y2="169" gradientUnits="userSpaceOnUse">
<stop stop-color="#EDF0F7"/>
<stop offset="1" stop-color="#F6F6F9" stop-opacity="0"/>
</linearGradient>
<linearGradient id="paint1_linear_313_29974" x1="87.8394" y1="61" x2="87.8394" y2="125.382" gradientUnits="userSpaceOnUse">
<stop stop-color="#C9D1E4"/>
<stop offset="1" stop-color="#E7EBF8"/>
</linearGradient>
</defs>
</svg>
