<svg width="24" height="24" viewBox="0 0 24 24" fill="none" xmlns="http://www.w3.org/2000/svg">
<g id="alert-circle">
<g id="Group 1171275224">
<path id="Vector" d="M16.4999 14.8332C16.0391 14.8332 15.6666 15.2066 15.6666 15.6664V18.9999C15.6666 19.459 15.2932 19.8331 14.8332 19.8331H12.3332V7.33325C12.3332 6.62159 11.8799 5.98576 11.1983 5.7491L10.9515 5.66655H14.8332C15.2932 5.66655 15.6666 6.04069 15.6666 6.49998V8.99995C15.6666 9.45985 16.0391 9.83322 16.4999 9.83322C16.9607 9.83322 17.3331 9.45985 17.3331 8.99995V6.49998C17.3331 5.12166 16.2115 4 14.8332 4H5.87498C5.84324 4 5.81669 4.01419 5.78587 4.01831C5.74574 4.01495 5.70744 4 5.6667 4C4.74752 4 4 4.74737 4 5.66655V20.6664C4 21.3781 4.45333 22.0139 5.13494 22.2506L10.15 23.9223C10.32 23.9748 10.489 23.9998 10.6667 23.9998C11.5858 23.9998 12.3332 23.2523 12.3332 22.3331V21.4998H14.8332C16.2115 21.4998 17.3331 20.3782 17.3331 18.9999V15.6664C17.3331 15.2066 16.9607 14.8332 16.4999 14.8332Z" fill="#D92D20"/>
<path id="Vector_2" d="M23.7545 11.7442L20.4211 8.41096C20.1829 8.17262 19.8245 8.1009 19.5129 8.22999C19.2021 8.35923 18.9987 8.66333 18.9987 9.00009V11.5001H15.6655C15.2054 11.5001 14.832 11.8733 14.832 12.3333C14.832 12.7934 15.2054 13.1666 15.6655 13.1666H18.9987V15.6666C18.9987 16.0033 19.2021 16.3075 19.5129 16.4367C19.8245 16.5658 20.1829 16.4941 20.4211 16.2559L23.7545 12.9225C24.0803 12.5967 24.0803 12.07 23.7545 11.7442Z" fill="#D92D20"/>
</g>
</g>
</svg>
