<svg width="16" height="20" viewBox="0 0 16 20" fill="none" xmlns="http://www.w3.org/2000/svg">
<g id="Group 1171275234">
<path id="Vector" d="M9.34016 17.1388C9.34016 15.9352 8.36294 14.9596 7.15738 14.9596C5.95182 14.9596 4.97461 15.9352 4.97461 17.1388C4.97461 18.3424 5.95182 19.318 7.15738 19.318C8.36294 19.318 9.34016 18.3424 9.34016 17.1388Z" fill="#169BA0"/>
<path id="Vector_2" d="M7.15785 14.9596C6.93719 14.9596 6.7242 14.9926 6.52344 15.0534C7.41947 15.3247 8.0718 16.1555 8.0718 17.1388C8.0718 18.122 7.41947 18.9529 6.52344 19.2242C6.7242 19.285 6.93719 19.318 7.15785 19.318C8.36341 19.318 9.34063 18.3424 9.34063 17.1388C9.34063 15.9352 8.36341 14.9596 7.15785 14.9596Z" fill="#04BF80"/>
<path id="Vector_3" d="M7.41325 4.42002C6.71215 4.56063 6.02982 4.10736 5.88892 3.4074C5.74801 2.70758 6.20214 2.02624 6.9031 1.88563C7.60405 1.74501 8.28653 2.19828 8.42743 2.89824C8.56819 3.59806 8.1142 4.2794 7.41325 4.42002Z" fill="#169BA0"/>
<path id="Vector_4" d="M8.42813 2.89824C8.28723 2.19828 7.60476 1.74501 6.9038 1.88563C6.83854 1.89871 6.77556 1.91662 6.71484 1.93852C7.12404 2.08809 7.44808 2.44042 7.54021 2.89824C7.66803 3.53294 7.30632 4.15243 6.71499 4.36712C6.93139 4.44618 7.17153 4.46864 7.41395 4.42002C8.11491 4.2794 8.56889 3.59806 8.42813 2.89824Z" fill="#04BF80"/>
<path id="Vector_5" d="M12.5645 16.7741H1.75182C0.784275 16.7741 0 15.9911 0 15.0253C0 14.4905 0.24242 13.9845 0.659297 13.6488L1.00665 13.369C1.81012 12.722 2.27733 11.7468 2.27733 10.7163V8.87831C2.27733 6.16647 4.47915 3.9682 7.19539 3.9682C9.91149 3.9682 12.1135 6.16647 12.1135 8.87831V10.7503C12.1135 11.7613 12.5632 12.7203 13.3411 13.3678L13.6793 13.6494C14.083 13.9853 14.3163 14.483 14.3163 15.0076V15.0253C14.3163 15.9911 13.532 16.7741 12.5645 16.7741Z" fill="#169BA0"/>
<path id="Vector_6" d="M13.6782 13.6494L13.34 13.3679C12.5621 12.7202 12.1124 11.7613 12.1124 10.7501V8.87818C12.1124 6.16649 9.9104 3.96808 7.1943 3.96808C6.71301 3.96808 6.24808 4.03746 5.80859 4.16614C7.85004 4.76344 9.34096 6.64693 9.34096 8.87818V10.7501C9.34096 11.7613 9.79068 12.7202 10.5686 13.3679L10.9069 13.6494C11.3105 13.9854 11.5439 14.483 11.5439 15.0076V15.0253C11.5439 15.9911 10.7596 16.7741 9.7921 16.7741H12.5635C13.5309 16.7741 14.3152 15.9911 14.3152 15.0253V15.0076C14.3152 14.483 14.0819 13.9854 13.6782 13.6494Z" fill="#04BF80"/>
<path id="Vector_7" d="M16.0006 4.89607C16.0006 2.5687 14.1109 0.681946 11.7797 0.681946C9.44847 0.681946 7.55859 2.5687 7.55859 4.89607C7.55859 7.22345 9.44847 9.1102 11.7797 9.1102C14.1109 9.1102 16.0006 7.22345 16.0006 4.89607Z" fill="#FC476E"/>
<path id="Vector_8" d="M12.9128 0.835632C13.9892 1.59929 14.6915 2.85433 14.6915 4.27316C14.6915 6.60053 12.8017 8.48729 10.4705 8.48729C10.0781 8.48729 9.69832 8.43368 9.33789 8.33359C10.0272 8.82269 10.87 9.11019 11.7801 9.11019C14.1112 9.11019 16.0011 7.22343 16.0011 4.89606C16.0011 2.9604 14.6939 1.32986 12.9128 0.835632Z" fill="#CC2B5A"/>
</g>
</svg>
