<svg width="16" height="22" viewBox="0 0 16 22" fill="none" xmlns="http://www.w3.org/2000/svg">
<g id="Group">
<g id="Group_2">
<g id="Group_3">
<path id="Vector" d="M15.8698 4.90792L11.4253 0.46346C11.342 0.380127 11.2292 0.333252 11.1111 0.333252H1.77775C0.797292 0.333252 0 1.13054 0 2.11104V19.8888C0 20.8693 0.797292 21.6666 1.77779 21.6666H14.2223C15.2027 21.6666 16 20.8693 16 19.8888V5.22213C16 5.10409 15.9531 4.99125 15.8698 4.90792ZM11.5555 1.85063L14.4826 4.77771H12.4444C11.9544 4.77771 11.5555 4.37884 11.5555 3.88884V1.85063ZM15.1111 19.8888C15.1111 20.3788 14.7123 20.7777 14.2223 20.7777H1.77779C1.28779 20.7777 0.888917 20.3788 0.888917 19.8888V2.11104C0.888917 1.62104 1.28779 1.22217 1.77779 1.22217H10.6667V3.88884C10.6667 4.86929 11.464 5.66659 12.4445 5.66659H15.1111V19.8888Z" fill="#5C5C5C"/>
<path id="Vector_2" d="M10.2664 13.3805C9.85491 13.0568 9.46387 12.7239 9.20345 12.4635C8.86491 12.1249 8.56324 11.7968 8.30112 11.4843C8.70999 10.2208 8.88924 9.56938 8.88924 9.22213C8.88924 7.74688 8.35624 7.44434 7.55591 7.44434C6.94783 7.44434 6.22258 7.76029 6.22258 9.26467C6.22258 9.92788 6.58587 10.733 7.30591 11.6688C7.1297 12.2065 6.92266 12.8268 6.69003 13.526C6.57803 13.8615 6.45653 14.1722 6.32803 14.4595C6.22345 14.506 6.12187 14.5533 6.02378 14.6023C5.67049 14.779 5.33499 14.9378 5.02378 15.0854C3.60449 15.7573 2.66699 16.2018 2.66699 17.0793C2.66699 17.7165 3.35928 18.111 4.00033 18.111C4.8267 18.111 6.07453 17.0073 6.98599 15.1479C7.93216 14.7746 9.10841 14.4981 10.0368 14.325C10.7807 14.897 11.6023 15.4443 12.0003 15.4443C13.1023 15.4443 13.3337 14.8072 13.3337 14.2729C13.3337 13.2221 12.1331 13.2221 11.5559 13.2221C11.3766 13.2221 10.8957 13.2751 10.2664 13.3805ZM4.00033 17.2221C3.74641 17.2221 3.57453 17.1023 3.55587 17.0793C3.55587 16.7642 4.49553 16.3189 5.40441 15.8884C5.46212 15.861 5.52074 15.8337 5.5802 15.8055C4.91266 16.7734 4.25249 17.2221 4.00033 17.2221ZM7.11145 9.26467C7.11145 8.33325 7.40053 8.33325 7.55591 8.33325C7.87016 8.33325 8.00037 8.33325 8.00037 9.22213C8.00037 9.40963 7.87537 9.87838 7.64662 10.6102C7.29762 10.0728 7.11145 9.61234 7.11145 9.26467ZM7.45216 14.0416C7.47995 13.9643 7.50687 13.8862 7.53291 13.8072C7.69783 13.3124 7.84628 12.868 7.97866 12.4678C8.16312 12.6709 8.36191 12.8788 8.57503 13.0919C8.65837 13.1753 8.86495 13.3628 9.14016 13.5975C8.59233 13.7169 8.00945 13.8649 7.45216 14.0416ZM12.4448 14.2729C12.4448 14.4726 12.4448 14.5555 12.0325 14.5581C11.9114 14.532 11.6314 14.3671 11.2859 14.1319C11.4113 14.118 11.5038 14.111 11.5559 14.111C12.2126 14.111 12.3988 14.1753 12.4448 14.2729Z" fill="#5C5C5C"/>
</g>
</g>
</g>
</svg>
