<svg width="40" height="40" viewBox="0 0 40 40" fill="none" xmlns="http://www.w3.org/2000/svg">
<path id="Vector" d="M22 0C17.6488 0 13.3953 1.29028 9.77746 3.70767C6.15958 6.12506 3.33979 9.56099 1.67466 13.581C0.00953233 17.6009 -0.426141 22.0244 0.422734 26.292C1.27161 30.5596 3.36691 34.4796 6.44366 37.5563C9.52041 40.6331 13.4404 42.7284 17.708 43.5773C21.9756 44.4261 26.3991 43.9905 30.419 42.3253C34.439 40.6602 37.8749 37.8404 40.2923 34.2225C42.7097 30.6047 44 26.3512 44 22C43.9931 16.1673 41.6731 10.5756 37.5488 6.45125C33.4244 2.32694 27.8327 0.00688094 22 0ZM29.414 29.414C29.0389 29.7889 28.5303 29.9996 28 29.9996C27.4697 29.9996 26.9611 29.7889 26.586 29.414L20.586 23.414C20.2109 23.039 20.0001 22.5304 20 22V10C20 9.46957 20.2107 8.96086 20.5858 8.58578C20.9609 8.21071 21.4696 8 22 8C22.5304 8 23.0391 8.21071 23.4142 8.58578C23.7893 8.96086 24 9.46957 24 10V21.172L29.414 26.586C29.7889 26.9611 29.9996 27.4697 29.9996 28C29.9996 28.5303 29.7889 29.0389 29.414 29.414Z" fill="url(#paint0_linear_261_15434)"/>
<defs>
<linearGradient id="paint0_linear_261_15434" x1="-6.46999" y1="44.402" x2="39.364" y2="8.338" gradientUnits="userSpaceOnUse">
<stop stop-color="#1BA0DB"/>
<stop offset="1" stop-color="#57BF99"/>
</linearGradient>
</defs>
</svg>
