<svg width="20" height="24" viewBox="0 0 20 24" fill="none" xmlns="http://www.w3.org/2000/svg">
<g id="Group 1171275223">
<path id="Vector" d="M11.574 3.81223V2.31662H13.121C13.3504 2.31662 13.5358 2.1308 13.5358 1.90185V0.726935C13.5358 0.497992 13.3504 0.312164 13.121 0.312164H6.60449C6.37554 0.312164 6.18972 0.497992 6.18972 0.726935V1.9019C6.18972 2.13085 6.37554 2.31667 6.60449 2.31667H8.42649V3.81187C3.65145 4.56707 0 8.70043 0 13.6878C0 19.2106 4.47721 23.6878 10 23.6878C15.5228 23.6878 20 19.2106 20 13.6878C20 8.70043 16.3494 4.56707 11.574 3.81223ZM10 21.7526C5.55304 21.7526 1.93522 18.1347 1.93522 13.6878C1.93522 9.24093 5.5531 5.62305 10 5.62305C14.4474 5.62305 18.0648 9.24093 18.0648 13.6878C18.0648 18.1351 14.4474 21.7526 10 21.7526Z" fill="#FF3B30"/>
<path id="Vector_2" d="M9.86328 6.45374V13.6878H17.0973C17.0973 9.69251 13.8585 6.45374 9.86328 6.45374Z" fill="#FF3B30"/>
<path id="Vector_3" d="M9.86281 18.5006H11.1548V20.6432H9.86281V18.5006ZM3.15464 12.6722H5.30636V14.2851H3.15464V12.6722ZM14.9999 16.538L16.1769 17.2178C16.2814 17.0303 16.3781 16.8375 16.4664 16.6405L15.3221 15.9793L14.9999 16.538ZM12.861 18.4338L13.676 19.8344C13.8597 19.7204 14.0381 19.5989 14.2106 19.4691L13.4184 18.1095L12.861 18.4338ZM7.01764 19.8386L6.4602 19.5138L7.27811 18.1099L7.83595 18.4342L7.01764 19.8386ZM4.28818 17.3526L3.96592 16.7939L5.37605 15.9793L5.69832 16.5384L4.28818 17.3526ZM5.37478 10.9783L3.96505 10.1637L4.28772 9.60508L5.69745 10.4197L5.37478 10.9783ZM7.27724 8.84774L6.45934 7.44382L7.01718 7.11906L7.83508 8.52297L7.27724 8.84774ZM1.32729 4.26684C0.486163 5.04409 0.434731 6.35636 1.21197 7.19748L4.25787 4.38216C3.48022 3.54103 2.16836 3.4896 1.32729 4.26684Z" fill="#FF3B30"/>
</g>
</svg>
