<svg width="80" height="80" viewBox="0 0 80 80" fill="none" xmlns="http://www.w3.org/2000/svg">
<path id="Vector" d="M11.5764 11.8294C-3.94269 27.5172 -3.85835 52.9045 11.8294 68.4236C27.5172 83.9427 52.9045 83.8584 68.4236 68.1706C83.9427 52.4827 83.8584 27.0955 68.1706 11.5764C52.4828 -3.94269 27.0955 -3.85835 11.5764 11.8294ZM59.4832 32.3248L37.7227 54.3383C35.8672 56.1938 32.8308 56.1938 30.9753 54.3383L30.1319 53.4949L27.6016 50.9646L20.5168 43.9641C18.6612 42.1086 18.6612 39.0722 20.5168 37.2167C22.3723 35.3611 25.4087 35.3611 27.2642 37.2167L34.349 44.2171L52.7358 25.6617C54.5913 23.8061 57.6277 23.8061 59.4832 25.6617C61.3388 27.4329 61.3388 30.4692 59.4832 32.3248Z" fill="#34C759"/>
</svg>
