<svg width="40" height="40" viewBox="0 0 40 40" fill="none" xmlns="http://www.w3.org/2000/svg">
<g id="Layer 2">
<g id="Layer 2 copy 7">
<g id="63">
<path id="background" d="M22 44C34.1503 44 44 34.1503 44 22C44 9.84974 34.1503 0 22 0C9.84974 0 0 9.84974 0 22C0 34.1503 9.84974 44 22 44Z" fill="url(#paint0_linear_261_15443)"/>
<path id="Vector" d="M43.9995 22.3988C43.8276 32.1527 37.3041 40.3597 28.3906 43.0581L15.8438 30.5113L34.53 12.9336L43.9995 22.3988Z" fill="url(#paint1_linear_261_15443)"/>
<g id="63_2">
<path id="Vector_2" d="M35.4073 15.0477C35.4077 15.4404 35.3306 15.8293 35.1803 16.1921C35.03 16.5549 34.8096 16.8844 34.5316 17.1618L20.626 31.0665C20.3484 31.3442 20.0187 31.5645 19.6559 31.7149C19.2931 31.8652 18.9042 31.9426 18.5115 31.9426C18.1188 31.9426 17.7299 31.8652 17.3671 31.7149C17.0043 31.5645 16.6747 31.3442 16.397 31.0665L9.4696 24.1399C9.18563 23.8636 8.9594 23.5337 8.80402 23.1692C8.64865 22.8048 8.56724 22.4131 8.56452 22.0169C8.56181 21.6207 8.63783 21.228 8.78819 20.8614C8.93855 20.4949 9.16024 20.1619 9.44039 19.8817C9.72053 19.6016 10.0536 19.3799 10.4201 19.2295C10.7866 19.0792 11.1794 19.0031 11.5756 19.0058C11.9718 19.0086 12.3635 19.09 12.7279 19.2453C13.0924 19.4007 13.4223 19.627 13.6986 19.9109L18.5111 24.7234L30.3026 12.9337C30.7208 12.5157 31.2536 12.231 31.8335 12.1157C32.4135 12.0005 33.0146 12.0597 33.5609 12.2859C34.1072 12.5122 34.5742 12.8953 34.9028 13.3869C35.2315 13.8785 35.407 14.4564 35.4073 15.0477Z" fill="white"/>
</g>
</g>
</g>
</g>
<defs>
<linearGradient id="paint0_linear_261_15443" x1="6.44359" y1="6.44359" x2="37.5564" y2="37.5564" gradientUnits="userSpaceOnUse">
<stop stop-color="#F8DA30"/>
<stop offset="1" stop-color="#FDAB22"/>
</linearGradient>
<linearGradient id="paint1_linear_261_15443" x1="24.9041" y1="21.4405" x2="39.2875" y2="35.8239" gradientUnits="userSpaceOnUse">
<stop stop-color="#D38718"/>
<stop offset="1" stop-color="#D38718" stop-opacity="0"/>
</linearGradient>
</defs>
</svg>
