<svg width="61" height="80" viewBox="0 0 61 80" fill="none" xmlns="http://www.w3.org/2000/svg">
<g clip-path="url(#clip0_211_78172)">
<path d="M61.0002 14.0138L60.8399 77.2026L12.8301 88.0001L13.0004 24.8113L61.0002 14.0138Z" fill="url(#paint0_linear_211_78172)"/>
<path d="M13.0102 24.8233L-40 10.8096L7.9998 0L61 14.0137L13.0102 24.8233Z" fill="url(#paint1_linear_211_78172)"/>
<g filter="url(#filter0_d_211_78172)">
<path d="M31.5137 51.3125C27.9688 51.3125 25.8105 48.4902 25.8105 43.9297C25.8105 39.3789 27.9883 36.5859 31.5137 36.5859C35.0391 36.5859 37.207 39.3691 37.207 43.9199C37.207 48.4707 35.0586 51.3125 31.5137 51.3125ZM31.5137 48.9492C33.1934 48.9492 34.209 47.1426 34.209 43.9297C34.209 40.7461 33.1836 38.9492 31.5137 38.9492C29.8535 38.9492 28.8086 40.7559 28.8086 43.9297C28.8086 47.1328 29.834 48.9492 31.5137 48.9492ZM42.4512 51V39.6133H42.3926L38.7988 42.0938V39.4375L42.4414 36.9082H45.3711V51H42.4512Z" fill="white"/>
</g>
</g>
<defs>
<filter id="filter0_d_211_78172" x="20.8105" y="35.5859" width="29.5605" height="24.7266" filterUnits="userSpaceOnUse" color-interpolation-filters="sRGB">
<feFlood flood-opacity="0" result="BackgroundImageFix"/>
<feColorMatrix in="SourceAlpha" type="matrix" values="0 0 0 0 0 0 0 0 0 0 0 0 0 0 0 0 0 0 127 0" result="hardAlpha"/>
<feOffset dy="4"/>
<feGaussianBlur stdDeviation="2.5"/>
<feComposite in2="hardAlpha" operator="out"/>
<feColorMatrix type="matrix" values="0 0 0 0 1 0 0 0 0 1 0 0 0 0 1 0 0 0 0.2 0"/>
<feBlend mode="normal" in2="BackgroundImageFix" result="effect1_dropShadow_211_78172"/>
<feBlend mode="normal" in="SourceGraphic" in2="effect1_dropShadow_211_78172" result="shape"/>
</filter>
<linearGradient id="paint0_linear_211_78172" x1="41.4295" y1="81.9182" x2="28.4625" y2="20.9331" gradientUnits="userSpaceOnUse">
<stop stop-color="#FE860A"/>
<stop offset="1" stop-color="#FFC344"/>
</linearGradient>
<linearGradient id="paint1_linear_211_78172" x1="12.3388" y1="24.9684" x2="7.05742" y2="0.196834" gradientUnits="userSpaceOnUse">
<stop stop-color="#FE860A"/>
<stop offset="1" stop-color="#FFC344"/>
</linearGradient>
<clipPath id="clip0_211_78172">
<rect width="101" height="88" fill="white" transform="translate(-40)"/>
</clipPath>
</defs>
</svg>