<svg width="20" height="22" viewBox="0 0 20 22" fill="none" xmlns="http://www.w3.org/2000/svg">
<g id="Group">
<path id="Vector" d="M19.0447 14.7321V12.3483H8.61229V13.0574C8.79856 13.0574 8.97627 13.0574 9.15228 13.0574C12.018 13.0557 14.8854 13.054 17.7511 13.0523C18.25 13.0523 18.3372 13.1565 18.3047 13.6418C18.2876 13.8965 18.1714 14.0007 17.9185 14.0007C14.6086 13.9973 11.2986 13.9956 7.98857 14.0007C7.70491 14.0007 7.6058 13.8811 7.61263 13.6094C7.6263 13.0215 7.62289 12.4337 7.62801 11.8459C7.63143 11.4067 7.66219 11.3725 8.09965 11.3725C10.4493 11.3691 12.8006 11.3691 15.152 11.3657C16.5908 11.3657 18.0296 11.3606 19.4701 11.3623C19.9674 11.3623 19.9948 11.3965 19.9948 11.8971C19.9948 13.001 19.9862 14.1032 19.9999 15.2071C20.0033 15.5438 19.8974 15.6753 19.5453 15.6736C17.5187 15.66 15.492 15.6583 13.4653 15.6651C13.1236 15.6651 12.9937 15.5403 12.9971 15.1986C13.0005 14.8637 13.1253 14.7252 13.4688 14.727C15.1844 14.7355 16.8984 14.7304 18.614 14.7287H19.0464L19.0447 14.7321Z" fill="#31B5B9"/>
<path id="Vector_2" d="M0.979155 17.7498V18.4333C1.20472 18.4333 1.41661 18.4333 1.6268 18.4333C4.54034 18.4351 7.45217 18.4368 10.3657 18.4402C10.8937 18.4402 11.0253 18.5888 10.916 19.1186C10.8937 19.2245 10.7553 19.3236 10.6477 19.3852C10.5742 19.4262 10.4597 19.3971 10.364 19.3971C7.06769 19.3971 3.77137 19.3971 0.475053 19.3971C0.0341765 19.3971 0.0102529 19.3715 0.00683529 18.9272C0.00341764 18.3752 0 17.825 0 17.2731C0 16.8407 0.047847 16.7895 0.466508 16.7895C4.36262 16.7878 8.25874 16.7895 12.1549 16.7809C12.4607 16.7809 12.5838 16.8886 12.5803 17.2013C12.5684 18.3513 12.5667 19.5031 12.5769 20.6531C12.5803 20.9727 12.4556 21.0632 12.1497 21.0632C10.2444 21.0564 8.33734 21.0666 6.43201 21.0701C5.98771 21.0701 5.93303 21.0205 5.9262 20.6189C5.91936 20.2037 5.99626 20.1268 6.43542 20.1268C8.01779 20.1268 9.60016 20.1268 11.1825 20.1268H11.6388V17.7464H0.979155V17.7498Z" fill="#31B5B9"/>
<g id="Clip path group">
<mask id="mask0_5_24110" style="mask-type:luminance" maskUnits="userSpaceOnUse" x="10" y="0" width="10" height="10">
<g id="clippath">
<path id="Vector_3" d="M10.7144 5.17293C10.7144 7.51572 12.6146 9.41593 14.9574 9.41593C17.3002 9.41593 19.2004 7.51572 19.2004 5.17293C19.2004 2.83013 17.3002 0.929924 14.9574 0.929924C12.6146 0.929924 10.7144 2.83013 10.7144 5.17293Z" fill="white"/>
</g>
</mask>
<g mask="url(#mask0_5_24110)">
<g id="Group_2">
<path id="Vector_4" d="M19.2004 0.929924H10.7144V9.41593H19.2004V0.929924Z" fill="url(#paint0_linear_5_24110)"/>
</g>
</g>
</g>
</g>
<defs>
<linearGradient id="paint0_linear_5_24110" x1="10.9749" y1="5.0746" x2="19.4609" y2="5.0746" gradientUnits="userSpaceOnUse">
<stop stop-color="#FFAD35"/>
<stop offset="1" stop-color="#FE6A06"/>
</linearGradient>
</defs>
</svg>
