<svg width="33" height="32" viewBox="0 0 33 32" fill="none" xmlns="http://www.w3.org/2000/svg">
<g id="video">
<path id="Vector" d="M25.9629 14.699C25.9623 14.6986 25.9618 14.698 25.9614 14.6975L17.8021 6.5394C17.4543 6.1915 16.992 6 16.5001 6C16.0083 6 15.5459 6.1915 15.198 6.5394L7.04298 14.6934C7.04024 14.6961 7.03734 14.699 7.03474 14.7018C6.32056 15.42 6.32178 16.5853 7.03825 17.3017C7.36559 17.6292 7.79776 17.8187 8.25999 17.8387C8.27892 17.8405 8.29784 17.8414 8.31692 17.8414H8.64196V23.8452C8.64196 25.0334 9.60886 26 10.7972 26H13.9893C14.313 26 14.5753 25.7375 14.5753 25.4141V20.707C14.5753 20.1649 15.0165 19.7239 15.5587 19.7239H17.4415C17.9837 19.7239 18.4247 20.1649 18.4247 20.707V25.4141C18.4247 25.7375 18.6871 26 19.0107 26H22.2029C23.3914 26 24.3581 25.0334 24.3581 23.8452V17.8414H24.6597C25.1513 17.8414 25.6137 17.6499 25.9618 17.3019C26.6791 16.5844 26.6794 15.417 25.9629 14.699ZM25.133 16.4733C25.0065 16.5998 24.8384 16.6696 24.6597 16.6696H23.7721C23.4484 16.6696 23.1861 16.9319 23.1861 17.2555V23.8452C23.1861 24.3871 22.7451 24.8281 22.2029 24.8281H19.5967V20.707C19.5967 19.5188 18.63 18.552 17.4415 18.552H15.5587C14.3702 18.552 13.4033 19.5188 13.4033 20.707V24.8281H10.7972C10.2551 24.8281 9.81395 24.3871 9.81395 23.8452V17.2555C9.81395 16.9319 9.55163 16.6696 9.22796 16.6696H8.35568C8.34652 16.6689 8.33752 16.6685 8.32821 16.6683C8.15363 16.6653 7.98989 16.596 7.86719 16.4732C7.60624 16.2122 7.60624 15.7876 7.86719 15.5265C7.86735 15.5265 7.86735 15.5264 7.8675 15.5262L7.86796 15.5258L16.0269 7.36795C16.1532 7.24146 16.3213 7.17188 16.5001 7.17188C16.6788 7.17188 16.8468 7.24146 16.9733 7.36795L25.1304 15.5241C25.1317 15.5253 25.133 15.5265 25.1343 15.5277C25.3938 15.7891 25.3934 16.2129 25.133 16.4733Z" fill="#247E80"/>
</g>
</svg>
