<svg width="60" height="64" viewBox="0 0 60 64" fill="none" xmlns="http://www.w3.org/2000/svg">
<g id="Frame 427321001">
<rect width="72" height="72" rx="36" fill="#D2F7FF"/>
<g id="Group 19701">
<g id="Group">
<path id="Vector" fill-rule="evenodd" clip-rule="evenodd" d="M29.7715 21.697H51.5305C52.5144 21.697 53.3188 22.5022 53.3188 23.4852V52.885C53.3188 53.8689 52.5135 54.6732 51.5305 54.6732H29.7715C28.7876 54.6732 27.9858 53.868 27.9858 52.885V23.4852C27.9858 22.5013 28.7876 21.697 29.7715 21.697Z" fill="#C6E9F5"/>
<path id="Vector_2" fill-rule="evenodd" clip-rule="evenodd" d="M53.3187 24.9533V52.8849C53.3187 53.8688 52.5134 54.6732 51.5304 54.6732H31.1265V26.739C31.1265 25.7551 31.9317 24.9533 32.9148 24.9533H53.3187Z" fill="#ECF7FD"/>
<path id="Vector_3" fill-rule="evenodd" clip-rule="evenodd" d="M37.5805 24.4804H49.8965C50.4247 24.4804 50.858 24.9111 50.858 25.4393V34.77C50.858 35.2956 50.4247 35.7288 49.8965 35.7288H37.5805C37.0548 35.7288 36.6216 35.2956 36.6216 34.77V25.4401C36.6216 24.9111 37.0548 24.4804 37.5805 24.4804Z" fill="#ECF7FD"/>
<path id="Vector_4" fill-rule="evenodd" clip-rule="evenodd" d="M42.3076 26.6657H45.1695V28.6741H47.1805V31.5369H45.1695V33.5452H42.3076V31.5369H40.2983V28.6741H42.3076V26.6657Z" fill="#97D9EF"/>
<path id="Vector_5" fill-rule="evenodd" clip-rule="evenodd" d="M20.6262 45.1656C20.9732 45.1121 21.1397 44.0453 21.6981 43.5707C18.4392 42.7119 17.0816 37.0898 21.2942 34.8191C20.974 34.6698 20.7194 34.3858 20.6219 34.019C20.5261 33.6565 20.5995 33.2897 20.7954 33.0015C14.7495 34.612 15.7162 43.9426 20.6262 45.1656Z" fill="#ECF7FD"/>
<path id="Vector_6" fill-rule="evenodd" clip-rule="evenodd" d="M31.6409 45.2537C30.6674 45.2321 30.3049 44.388 29.7473 43.9133C33.0063 43.1228 34.6772 37.0752 31.2076 34.8735C31.5278 34.7242 31.785 34.4402 31.8826 34.0734C31.9784 33.7109 31.905 33.3441 31.7091 33.0559C37.414 34.7777 35.6283 44.552 31.6409 45.2537Z" fill="#ECF7FD"/>
<path id="Vector_7" fill-rule="evenodd" clip-rule="evenodd" d="M27.3419 49.6165L24.7855 49.7727L24.6267 46.9841C23.2691 46.8762 21.8062 46.3506 20.729 45.516C20.5305 45.0439 20.5702 44.5054 20.8317 44.0652C21.0907 43.625 21.5464 43.3333 22.0547 43.2798C23.288 44.1291 24.7095 44.5762 26.1405 44.6202C27.5741 44.5762 28.9955 44.1282 30.2289 43.2798C30.7381 43.3333 31.1929 43.625 31.4519 44.0652C31.7134 44.5054 31.7531 45.0439 31.5546 45.516C30.4757 46.3506 28.602 46.8762 27.2435 46.9841L27.3419 49.6165Z" fill="#97D9EF"/>
<path id="Vector_8" fill-rule="evenodd" clip-rule="evenodd" d="M46.3639 36.2415L46.4054 38.4898C41.3314 40.0752 41.0302 43.1598 40.1593 47.7989C39.1418 53.2207 35.2105 55.8971 30.6595 55.3784C27.6137 55.0331 25.179 52.8409 24.7854 49.7736L27.3418 49.6174C27.9512 51.6188 29.7153 53.0714 31.7331 52.9247C38.4755 52.4379 37.2991 46.8063 38.97 42.4021C40.3889 38.6537 42.7692 36.3217 46.3639 36.2415Z" fill="#ECF7FD"/>
<path id="Vector_9" fill-rule="evenodd" clip-rule="evenodd" d="M50.3394 32.1185C53.1331 32.1185 55.3987 34.3841 55.3987 37.1779C55.3987 39.9716 53.1331 42.2372 50.3394 42.2372C47.5456 42.2372 45.28 39.9716 45.28 37.1779C45.28 34.3841 47.5456 32.1185 50.3394 32.1185Z" fill="#97D9EF"/>
<path id="Vector_10" fill-rule="evenodd" clip-rule="evenodd" d="M50.3394 34.5093C51.8118 34.5093 53.0089 35.7029 53.0089 37.1788C53.0089 38.6512 51.8127 39.8482 50.3394 39.8482C48.8644 39.8482 47.6699 38.652 47.6699 37.1788C47.6699 35.7029 48.8644 34.5093 50.3394 34.5093Z" fill="#ECF7FD"/>
<path id="Vector_11" fill-rule="evenodd" clip-rule="evenodd" d="M21.4609 32.4439L23.4106 31.9494C24.0734 31.7802 24.751 32.1867 24.9175 32.847C25.0867 33.5072 24.6828 34.1873 24.0199 34.3539L22.0703 34.8484C21.4074 35.015 20.7299 34.6111 20.5633 33.9508C20.3942 33.288 20.7998 32.6105 21.4609 32.4439Z" fill="#97D9EF"/>
<path id="Vector_12" fill-rule="evenodd" clip-rule="evenodd" d="M31.0436 32.4267L28.7927 31.8665C28.1273 31.7 27.4273 32.1039 27.2392 32.7641C27.0484 33.4226 27.4377 34.0976 28.1031 34.2616L30.354 34.8243C31.0194 34.9883 31.7194 34.5843 31.9101 33.9267C32.0983 33.269 31.709 32.5932 31.0436 32.4267Z" fill="#97D9EF"/>
<path id="Vector_13" fill-rule="evenodd" clip-rule="evenodd" d="M23.7213 25.5471L21.7595 29.2393L25.6563 29.2592L23.7213 25.5471Z" fill="#97D9EF"/>
<path id="Vector_14" fill-rule="evenodd" clip-rule="evenodd" d="M25.9031 22.3943L36.323 17.8365L38.3072 22.3702L38.3391 22.4461C39.2936 24.6288 28.8712 29.1859 27.9192 27.004L27.8847 26.9281L25.9031 22.3943Z" fill="#ECF7FD"/>
<path id="Vector_15" fill-rule="evenodd" clip-rule="evenodd" d="M29.661 16.6031L38.5498 17.2711L32.5359 23.852L23.6479 23.184L29.661 16.6031Z" fill="#C6E9F5"/>
</g>
<path id="Vector_16" d="M43.3571 52.7089C43.0248 52.7089 42.7529 52.4371 42.7529 52.1048C42.7529 51.7699 43.0248 51.5006 43.3571 51.5006H50.0286C50.3618 51.5006 50.6302 51.7699 50.6302 52.1048C50.6302 52.4379 50.3609 52.7089 50.0286 52.7089H43.3571ZM43.3571 49.4862C43.0248 49.4862 42.7529 49.2144 42.7529 48.8821C42.7529 48.5472 43.0248 48.2779 43.3571 48.2779H50.0286C50.3618 48.2779 50.6302 48.5472 50.6302 48.8821C50.6302 49.2152 50.3609 49.4862 50.0286 49.4862H43.3571ZM43.3571 46.2644C43.0248 46.2644 42.7529 45.9925 42.7529 45.6602C42.7529 45.3253 43.0248 45.0561 43.3571 45.0561H50.0286C50.3618 45.0561 50.6302 45.3253 50.6302 45.6602C50.6302 45.9925 50.3609 46.2644 50.0286 46.2644H43.3571ZM29.705 16.0016L38.5929 16.6696C39.0995 16.7067 39.3395 17.3135 38.9796 17.6949L37.5848 19.2191L38.4048 21.0929H51.5304C52.8491 21.0929 53.9228 22.1665 53.9228 23.4853V32.7918C56.6924 35.06 56.6924 39.2942 53.9228 41.5623V52.885C53.9228 54.2012 52.8491 55.2748 51.5304 55.2748H35.4522C33.9893 55.9334 32.333 56.175 30.5931 55.9774C28.9196 55.7867 27.4127 55.0798 26.2751 53.9958C25.1695 52.9411 24.4135 51.53 24.1934 49.8884L24.0536 47.5253C22.7469 47.3294 21.4014 46.796 20.3596 45.9934C20.2742 45.9269 20.2103 45.8415 20.1715 45.7491C20.1594 45.7146 20.1447 45.6827 20.1326 45.6516C16.311 44.3967 14.9438 38.8825 16.8616 35.3638C17.5615 34.0769 18.6939 33.0343 20.3113 32.5156C20.5555 32.2023 20.9008 31.9624 21.3142 31.8571L23.2665 31.3626C24.8347 30.9664 26.1439 32.6736 25.2973 34.095C25.0547 34.5015 24.6586 34.814 24.1666 34.9391L22.217 35.4337C21.9408 35.5019 21.6637 35.5044 21.4022 35.4509C20.4183 36.0309 19.8073 36.8206 19.5009 37.6725C18.8259 39.5609 19.6234 42.0129 21.3996 42.8276C21.5852 42.7517 21.7863 42.7007 21.9917 42.6783C22.1479 42.661 22.2972 42.7076 22.4146 42.7957C22.9696 43.1746 23.5668 43.4663 24.1882 43.6717C24.8243 43.8797 25.4828 43.9971 26.1405 44.0195C26.5565 44.0048 26.9699 43.9531 27.3807 43.865V34.5896C26.3235 33.8801 26.3235 32.3387 27.3807 31.5852V27.2742L25.9299 23.9591L24.2659 23.834L24.303 25.3633L26.1819 28.9649C26.4072 29.3809 26.1034 29.8599 25.6537 29.8582L21.8053 29.841C21.2719 29.8608 21.0199 29.3395 21.2253 28.9554L23.099 25.4272L23.0472 23.2428C23.0352 23.0494 23.0843 22.9001 23.2164 22.7612L29.213 16.1975C29.3434 16.0551 29.5272 15.9886 29.705 16.0016ZM36.6976 20.1918L32.9838 24.2577C32.8543 24.3993 32.6705 24.4657 32.4918 24.4537L27.291 24.0618L28.4725 26.765C28.734 27.2198 30.0209 27.0144 31.4838 26.5863C32.8561 26.1824 34.3828 25.5144 35.611 24.7808C36.9885 23.9591 37.9818 23.1297 37.7885 22.6844L36.6976 20.1918ZM37.2672 17.7795L29.9078 17.2263L24.9287 22.6749L32.2899 23.2281L37.2672 17.7795ZM38.9286 22.3012C39.0995 22.7974 38.9459 23.336 38.5541 23.8771H49.8957C50.757 23.8771 51.4587 24.5797 51.4587 25.4401V31.6249C51.8989 31.713 52.3175 31.8528 52.7136 32.0358V23.4853C52.7136 22.8345 52.1803 22.3012 51.5295 22.3012H38.9286ZM36.0175 25.9416C34.1265 27.0325 30.6207 28.4954 28.5899 28.0941V31.2279C28.7047 31.2357 28.8221 31.2521 28.9377 31.2797L31.1886 31.8424C31.9766 32.053 32.1993 32.5545 32.27 32.6106C33.7571 33.1759 34.7462 34.2573 35.321 35.5709C36.3757 37.9806 36.033 41.2102 34.7514 43.4361C34.0911 44.5831 33.1832 45.4419 32.1069 45.7629C32.0603 45.8656 31.9869 45.9511 31.8989 46.0124C30.9374 46.7097 29.7904 47.1326 28.5916 47.3898V50.7834C28.829 51.1088 29.1077 51.3927 29.4184 51.6275C30.0666 52.1169 30.8572 52.381 31.6935 52.3223C37.8731 51.8743 36.7502 46.5604 38.4065 42.1889C39.3757 39.6325 40.8921 37.4161 43.2336 36.3347H37.5822C36.7209 36.3347 36.0192 35.6304 36.0192 34.7691V25.9416H36.0175ZM23.7161 26.8418L22.7598 28.6421L24.6629 28.6499L23.7161 26.8418ZM30.9021 33.0119L28.6486 32.4518C28.0979 32.3145 27.5896 32.9066 27.8709 33.3985C27.9521 33.5384 28.0884 33.6385 28.2481 33.6773L30.499 34.2374C31.0643 34.379 31.5537 33.7705 31.2766 33.2907C31.1955 33.1508 31.0678 33.0533 30.9021 33.0119ZM30.9651 35.4363C30.7208 35.4777 30.4636 35.4708 30.209 35.4095L28.589 35.0056V43.4879C29.0396 43.3023 29.4745 43.0667 29.8854 42.7836C30.0105 42.6982 30.1546 42.6662 30.2919 42.6809V42.6783C30.436 42.6956 30.5784 42.7249 30.7148 42.7663C32.6973 41.1809 33.4335 37.0977 30.9651 35.4363ZM20.2837 34.7441C20.1145 34.5162 19.9971 34.2495 19.9488 33.9639C15.9321 35.98 16.6139 42.6861 20.074 44.3294C20.1378 44.0851 20.2431 43.8521 20.3872 43.6415C18.3737 42.3521 17.5538 39.5384 18.3685 37.2686C18.7086 36.3218 19.33 35.4388 20.2837 34.7441ZM23.5573 32.5346L21.6076 33.0291C21.0673 33.1664 20.9491 33.9 21.4385 34.1934C21.5783 34.2763 21.7518 34.3056 21.9227 34.2616L23.8723 33.7697C24.4126 33.6324 24.5326 32.8962 24.0415 32.6028C23.9025 32.5199 23.7282 32.4906 23.5573 32.5346ZM50.3393 33.9026C52.1475 33.9026 53.613 35.3707 53.613 37.1788C53.613 38.9844 52.1475 40.4524 50.3393 40.4524C48.5312 40.4524 47.0657 38.9844 47.0657 37.1788C47.0657 35.3698 48.5312 33.9026 50.3393 33.9026ZM51.7996 35.7176C50.5007 34.4187 48.274 35.343 48.274 37.1779C48.274 39.0102 50.5007 39.9355 51.7996 38.6357C52.6049 37.8313 52.6049 36.5229 51.7996 35.7176ZM52.7145 42.3184C49.881 43.632 46.5323 42.3892 45.2109 39.5859C41.7371 41.2007 41.4557 44.1533 40.7506 47.9085C40.2414 50.622 39.0305 52.6917 37.382 54.0691H51.5304C52.1811 54.0691 52.7145 53.5332 52.7145 52.885V42.3184ZM44.8174 38.438C44.7173 38.0022 44.6681 37.5499 44.6758 37.0847C42.0901 37.8019 40.5141 40.0226 39.5337 42.6136C37.8576 47.0368 39.0788 52.9963 31.7781 53.5254C30.6354 53.6065 29.566 53.2492 28.6909 52.5881C27.8986 51.9909 27.2961 51.1718 26.9267 50.244L25.5001 50.332C26.0947 52.8056 28.1989 54.4886 30.726 54.7777C32.8397 55.0177 34.8774 54.5257 36.4896 53.2389C37.9913 52.0401 39.1004 50.1732 39.5673 47.685C40.3648 43.4318 40.685 40.2729 44.8174 38.438ZM45.0599 35.1256C45.8816 33.0067 47.915 31.549 50.2539 31.5145V25.4401C50.2539 25.2442 50.0925 25.0854 49.8966 25.0854H37.5805C37.3872 25.0854 37.2258 25.2442 37.2258 25.4401V34.7691C37.2258 34.965 37.3872 35.1264 37.5805 35.1264H45.0599V35.1256ZM53.4878 34.0269C51.7556 32.2947 48.9377 32.2774 47.1882 34.0269C46.6747 34.5404 46.2803 35.1868 46.068 35.9032C45.2239 38.753 47.3522 41.6305 50.3393 41.6305C52.7861 41.6305 54.7945 39.6515 54.7945 37.1779C54.7945 35.9472 54.2956 34.8321 53.4878 34.0269ZM31.7582 43.4559C31.9904 43.7295 32.1518 44.0575 32.2303 44.4079C34.9093 42.9355 36.0693 36.1828 32.5022 34.0545C32.4504 34.3505 32.3434 34.6051 32.1647 34.8468C34.6159 37.0752 33.9772 41.3811 31.7582 43.4559ZM25.3534 49.1341L26.7187 49.0486L26.6454 47.0472C26.6212 46.6873 26.8629 46.4059 27.1986 46.3817C28.4147 46.2859 30.0632 45.8268 31.0471 45.1441L31.0738 44.8187C31.0617 44.4174 30.7553 44.0411 30.3566 43.9159C29.1017 44.7255 27.6509 45.1786 26.1612 45.2226C26.1491 45.2226 26.137 45.2226 26.1241 45.2226C24.6344 45.176 23.1879 44.7307 21.9287 43.9159C21.5274 44.0411 21.2365 44.4001 21.2098 44.8213C21.2029 44.9292 21.2123 45.0388 21.2391 45.1467C21.6913 45.4721 22.2101 45.7413 22.7581 45.9468C23.3821 46.1815 24.0398 46.3308 24.6741 46.3826C24.9702 46.4042 25.2127 46.6441 25.2291 46.9505L25.3534 49.1341ZM42.3076 26.059H45.1704C45.5053 26.059 45.7745 26.3308 45.7745 26.6631V28.0699H47.1813C47.5136 28.0699 47.7855 28.3392 47.7855 28.6741V31.5369C47.7855 31.8692 47.5136 32.141 47.1813 32.141H45.7745V33.5453C45.7745 33.8775 45.5053 34.1494 45.1704 34.1494H42.3076C41.9753 34.1494 41.7034 33.8775 41.7034 33.5453V32.141H40.2992C39.9669 32.141 39.695 31.8692 39.695 31.5369V28.6741C39.695 28.3392 39.9669 28.0699 40.2992 28.0699H41.7034V26.6631C41.7034 26.33 41.9744 26.059 42.3076 26.059ZM44.5654 27.2673H42.9117V28.6741C42.9117 29.0064 42.6424 29.2782 42.3076 29.2782H40.9033V30.9319H42.3076C42.6424 30.9319 42.9117 31.2012 42.9117 31.536V32.9403H44.5654V31.536C44.5654 31.2012 44.8372 30.9319 45.1695 30.9319H46.5763V29.2782H45.1695C44.8372 29.2782 44.5654 29.0064 44.5654 28.6741V27.2673Z" fill="#118CB5"/>
</g>
</g>
</svg>
