<svg width="16" height="19" viewBox="0 0 16 19" fill="none" xmlns="http://www.w3.org/2000/svg">
<path id="Vector" d="M7.49453 17.3804C7.49453 17.7707 7.18244 18.087 6.79736 18.087H2.78866C1.25095 18.087 0 16.8192 0 15.2609V2.82609C0 1.26774 1.25095 0 2.78866 0H11.36C12.8976 0 14.1486 1.26774 14.1486 2.82609V10.3152C14.1486 10.7055 13.8364 11.0217 13.4515 11.0217C13.0664 11.0217 12.7543 10.7055 12.7543 10.3152V2.82609C12.7543 2.04698 12.1288 1.41304 11.36 1.41304H2.78866C2.01987 1.41304 1.39433 2.04698 1.39433 2.82609V15.2609C1.39433 16.04 2.01987 16.6739 2.78866 16.6739H6.79736C7.18244 16.6739 7.49453 16.9902 7.49453 17.3804ZM15.7086 11.5071C15.3955 11.2799 14.9601 11.3531 14.7359 11.6702L11.2995 16.5347C11.2057 16.6449 11.0881 16.6687 11.0252 16.6729C10.9601 16.6772 10.8343 16.6689 10.7263 16.5648L8.50161 14.3999C8.22397 14.1297 7.78265 14.1387 7.51591 14.4202C7.24916 14.7017 7.25815 15.149 7.53592 15.4191L9.76277 17.5862C10.0964 17.9078 10.5415 18.087 10.9996 18.087C11.0389 18.087 11.0784 18.0856 11.1179 18.083C11.6168 18.0493 12.0826 17.8034 12.3959 17.4082C12.404 17.3981 12.4119 17.3876 12.4193 17.377L15.8696 12.4927C16.0938 12.1755 16.0217 11.7342 15.7086 11.5071ZM10.6628 4.23913H3.48201C3.09694 4.23913 2.78485 4.55541 2.78485 4.94565C2.78485 5.3359 3.09694 5.65217 3.48201 5.65217H10.6628C11.0478 5.65217 11.36 5.3359 11.36 4.94565C11.36 4.55541 11.0478 4.23913 10.6628 4.23913ZM11.36 7.77174C11.36 7.3815 11.0478 7.06522 10.6628 7.06522H3.48201C3.09694 7.06522 2.78485 7.3815 2.78485 7.77174C2.78485 8.16198 3.09694 8.47826 3.48201 8.47826H10.6628C11.0478 8.47826 11.36 8.16198 11.36 7.77174ZM3.48201 9.8913C3.09694 9.8913 2.78485 10.2076 2.78485 10.5978C2.78485 10.9881 3.09694 11.3043 3.48201 11.3043H7.84311C8.22819 11.3043 8.54028 10.9881 8.54028 10.5978C8.54028 10.2076 8.22819 9.8913 7.84311 9.8913H3.48201Z" fill="white"/>
</svg>
