<svg width="60" height="64" viewBox="0 0 60 64" fill="none" xmlns="http://www.w3.org/2000/svg">
<g id="Frame 427321001">
<rect width="72" height="72" rx="36" fill="#D2F7FF"/>
<g id="g2232">
<g id="g2234">
<g id="Clip path group">
<mask id="mask0_5_21582" style="mask-type:luminance" maskUnits="userSpaceOnUse" x="15" y="15" width="40" height="40">
<g id="clipPath2240">
<path id="path2238" d="M15 15H55V55H15V15Z" fill="white"/>
</g>
</mask>
<g mask="url(#mask0_5_21582)">
<g id="g2236">
<g id="g2242">
<path id="path2244" d="M33.9112 24.1733C33.9112 19.39 30.0002 15.5202 25.2017 15.587C20.5767 15.6512 16.802 19.4259 16.7377 24.051C16.6709 28.8495 20.5407 32.7605 25.324 32.7605C25.5203 32.7605 25.7151 32.7538 25.9081 32.7409C26.0975 32.7281 26.2829 32.7975 26.4183 32.9305L28.9849 35.4549C29.2631 35.7285 29.7341 35.557 29.7713 35.1688L30.1148 31.5852C30.133 31.3958 30.2313 31.2233 30.3849 31.111C32.5225 29.5491 33.9112 27.0234 33.9112 24.1733Z" fill="#BED9FD"/>
</g>
<g id="g2246">
<path id="path2248" d="M41.9821 17.6584L40.6809 21.2333L43.5722 22.2857L44.8734 18.7108C44.9504 18.4993 44.8414 18.2656 44.63 18.1886L42.5042 17.415C42.2928 17.338 42.059 17.447 41.9821 17.6584Z" fill="#DDEBFD"/>
</g>
<g id="g2250">
<path id="path2252" d="M44.6302 18.1886L42.9458 17.5756C43.1187 17.6385 43.1964 17.8609 43.1195 18.0723L41.8184 21.6472L43.5725 22.2857L44.8737 18.7108C44.9507 18.4993 44.8416 18.2656 44.6302 18.1886Z" fill="#BED9FD"/>
</g>
<g id="g2254">
<path id="path2256" d="M34.1974 33.0274L38.6064 20.9136C38.6838 20.7012 38.9186 20.5917 39.1311 20.669L45.1235 22.85C45.3359 22.9274 45.4455 23.1623 45.3681 23.3747L40.9591 35.4884C40.8818 35.7008 40.6469 35.8104 40.4345 35.7331L34.4421 33.552C34.2296 33.4747 34.1201 33.2398 34.1974 33.0274Z" fill="#6CBFF8"/>
</g>
<g id="g2258">
<path id="path2260" d="M45.1235 22.8501L43.676 22.3233C43.8597 22.3901 43.946 22.6165 43.8686 22.8289L39.4596 34.9427C39.3823 35.1551 39.1707 35.2731 38.9871 35.2063L40.4345 35.7331C40.6469 35.8104 40.8818 35.7009 40.9591 35.4885L45.3682 23.3747C45.4454 23.1623 45.336 22.9274 45.1235 22.8501Z" fill="#5FA7EE"/>
</g>
<g id="g2262">
<path id="path2264" d="M35.1265 33.8013L34.4132 35.7609C34.3291 35.992 34.4482 36.2474 34.6792 36.3315L38.4656 37.7096C38.6966 37.7937 38.9521 37.6746 39.0362 37.4436L39.7494 35.484L35.1265 33.8013Z" fill="#DDEBFD"/>
</g>
<g id="g2266">
<path id="path2268" d="M37.8374 34.788L37.1241 36.7476C37.04 36.9787 36.8188 37.1102 36.6299 37.0415L38.4656 37.7096C38.6966 37.7937 38.9521 37.6746 39.0361 37.4436L39.7494 35.484L37.8374 34.788Z" fill="#BED9FD"/>
</g>
<g id="g2270">
<path id="path2272" d="M32.5815 45.2154V51.129H48.2728C51.3789 51.129 53.7299 48.321 53.1838 45.2632L50.299 29.1108C50.1234 28.1274 49.2682 27.4114 48.2693 27.4114H42.152V30.2326H46.2789C46.854 30.2326 47.3202 30.6988 47.3202 31.2739V43.1178C47.3202 44.2762 46.3812 45.2154 45.2227 45.2154H32.5815Z" fill="#DDEBFD"/>
</g>
<g id="g2274">
<path id="path2276" d="M53.184 45.2632L50.2992 29.1108C50.1236 28.1274 49.2684 27.4114 48.2695 27.4114H46.186C47.185 27.4114 48.0403 28.1274 48.2159 29.1108L51.1006 45.2632C51.6467 48.321 49.2957 51.129 46.1896 51.129H48.273C51.3791 51.129 53.7301 48.321 53.184 45.2632Z" fill="#BED9FD"/>
</g>
<g id="g2278">
<path id="path2280" d="M26.3574 51.5194V54.0234C26.3574 54.2391 26.5323 54.4141 26.748 54.4141H46.916C47.1317 54.4141 47.3066 54.2391 47.3066 54.0234V51.1287H26.748C26.5323 51.1287 26.3574 51.3037 26.3574 51.5194Z" fill="#407194"/>
</g>
<g id="g2282">
<path id="path2284" d="M45.3184 51.1287V54.0234C45.3184 54.2392 45.1435 54.4141 44.9277 54.4141H46.9159C47.1316 54.4141 47.3065 54.2392 47.3065 54.0234V51.1287H45.3184Z" fill="#365F7E"/>
</g>
<g id="g2286">
<path id="path2288" d="M30.1133 42.5433V44.8245C30.1133 45.0402 30.2881 45.2151 30.5039 45.2151H43.1598C43.3756 45.2151 43.5505 45.0402 43.5505 44.8245V42.5433C43.5505 42.3276 43.3756 42.1527 43.1598 42.1527H30.5039C30.2881 42.1527 30.1133 42.3276 30.1133 42.5433Z" fill="#407194"/>
</g>
<g id="g2290">
<path id="path2292" d="M43.1599 42.1527H41.1719C41.3876 42.1527 41.5625 42.3276 41.5625 42.5433V44.8245C41.5625 45.0402 41.3876 45.2151 41.1719 45.2151H43.1599C43.3757 45.2151 43.5505 45.0402 43.5505 44.8245V42.5433C43.5505 42.3275 43.3757 42.1527 43.1599 42.1527Z" fill="#365F7E"/>
</g>
<g id="g2294">
<path id="path2296" d="M42.8466 25.3351C40.8772 25.3351 39.2808 26.9316 39.2808 28.901C39.2808 30.8704 40.8772 32.4669 42.8466 32.4669C44.816 32.4669 46.4126 30.8704 46.4126 28.901C46.4126 26.9316 44.816 25.3351 42.8466 25.3351Z" fill="#DF646E"/>
</g>
<g id="g2298">
<path id="path2300" d="M42.8468 27.7123C42.1904 27.7123 41.6582 28.2445 41.6582 28.9009C41.6582 29.5574 42.1904 30.0896 42.8468 30.0896C43.5032 30.0896 44.0355 29.5574 44.0355 28.9009C44.0355 28.2445 43.5032 27.7123 42.8468 27.7123Z" fill="#DDEBFD"/>
</g>
<g id="g2302">
<path id="path2304" d="M28.9658 20.5308C28.2788 20.5308 27.7219 21.0877 27.7219 21.7747C27.7219 22.4617 28.2788 23.0186 28.9658 23.0186C29.6529 23.0186 30.2097 22.4617 30.2097 21.7747C30.2097 21.0877 29.6529 20.5308 28.9658 20.5308Z" fill="#5392F9"/>
</g>
<g id="g2306">
<path id="path2308" d="M21.1257 22.8474C20.4388 22.8474 19.8818 23.4043 19.8818 24.0913C19.8818 24.7783 20.4388 25.3352 21.1257 25.3352C21.8128 25.3352 22.3697 24.7783 22.3697 24.0913C22.3697 23.4043 21.8128 22.8474 21.1257 22.8474Z" fill="#ECB880"/>
</g>
<g id="g2310">
<path id="path2312" d="M33.9112 24.1733C33.9112 19.39 30.0002 15.5202 25.2017 15.587C20.5767 15.6512 16.802 19.4259 16.7377 24.051C16.6709 28.8495 20.5407 32.7605 25.324 32.7605C25.5203 32.7605 25.7151 32.7538 25.9081 32.7409C26.0975 32.7281 26.2829 32.7975 26.4183 32.9305L28.9849 35.4549C29.2631 35.7285 29.7341 35.557 29.7713 35.1688L30.1148 31.5852C30.133 31.3958 30.2313 31.2233 30.3849 31.111C32.5225 29.5491 33.9112 27.0234 33.9112 24.1733Z" stroke="black" stroke-width="0.5" stroke-miterlimit="10" stroke-linecap="round" stroke-linejoin="round"/>
</g>
<g id="g2314">
<path id="path2316" d="M43.5722 22.2857L44.8734 18.7108C44.9504 18.4993 44.8414 18.2655 44.63 18.1886L42.5042 17.4149C42.2928 17.3379 42.059 17.4469 41.9821 17.6584L40.6809 21.2333" stroke="black" stroke-width="0.5" stroke-miterlimit="10" stroke-linecap="round" stroke-linejoin="round"/>
</g>
<g id="g2318">
<path id="path2320" d="M44.5053 25.7437L45.3678 23.375C45.4451 23.1625 45.335 22.9273 45.1225 22.85L39.1303 20.6687C38.9178 20.5914 38.6834 20.7015 38.606 20.9132L34.1967 33.0273C34.1194 33.2398 34.2287 33.475 34.4412 33.5523L40.4342 35.7328C40.6459 35.8101 40.881 35.7007 40.9584 35.4882L42.0882 32.3859" stroke="black" stroke-width="0.5" stroke-miterlimit="10" stroke-linecap="round" stroke-linejoin="round"/>
</g>
<g id="g2322">
<path id="path2324" d="M35.1265 33.8013L34.4132 35.7609C34.3291 35.992 34.4482 36.2474 34.6792 36.3315L38.4656 37.7096C38.6966 37.7937 38.9521 37.6746 39.0362 37.4436L39.7494 35.484" stroke="black" stroke-width="0.5" stroke-miterlimit="10" stroke-linecap="round" stroke-linejoin="round"/>
</g>
<g id="g2326">
<path id="path2328" d="M46.1558 30.2321H46.2792C46.855 30.2321 47.3206 30.6985 47.3206 31.2735V35.7837" stroke="black" stroke-width="0.5" stroke-miterlimit="10" stroke-linecap="round" stroke-linejoin="round"/>
</g>
<g id="g2330">
<path id="path2332" d="M46.0875 27.411H48.2695C49.2688 27.411 50.1234 28.1274 50.2992 29.1102L53.1844 45.2633C53.7305 48.3212 51.3789 51.129 48.2734 51.129H32.582V45.2149H45.2227C46.3813 45.2149 47.3203 44.2758 47.3203 43.1172V38.518" stroke="black" stroke-width="0.5" stroke-miterlimit="10" stroke-linecap="round" stroke-linejoin="round"/>
</g>
<g id="g2334">
<path id="path2336" d="M33.9493 54.4141H46.9161C47.1317 54.4141 47.3067 54.2391 47.3067 54.0234V51.1287H26.748C26.5323 51.1287 26.3574 51.3037 26.3574 51.5194V54.0234C26.3574 54.2391 26.5323 54.4141 26.748 54.4141H31.2149" stroke="black" stroke-width="0.5" stroke-miterlimit="10" stroke-linecap="round" stroke-linejoin="round"/>
</g>
<g id="g2338">
<path id="path2340" d="M30.1133 42.5433V44.8245C30.1133 45.0402 30.2881 45.2151 30.5039 45.2151H43.1598C43.3756 45.2151 43.5505 45.0402 43.5505 44.8245V42.5433C43.5505 42.3276 43.3756 42.1527 43.1598 42.1527H30.5039C30.2881 42.1527 30.1133 42.3276 30.1133 42.5433Z" stroke="black" stroke-width="0.5" stroke-miterlimit="10" stroke-linecap="round" stroke-linejoin="round"/>
</g>
<g id="g2342">
<path id="path2344" d="M42.8466 25.3351C40.8772 25.3351 39.2808 26.9316 39.2808 28.901C39.2808 30.8704 40.8772 32.4669 42.8466 32.4669C44.816 32.4669 46.4126 30.8704 46.4126 28.901C46.4126 26.9316 44.816 25.3351 42.8466 25.3351Z" stroke="black" stroke-width="0.5" stroke-miterlimit="10" stroke-linecap="round" stroke-linejoin="round"/>
</g>
<g id="g2346">
<path id="path2348" d="M42.8468 27.7123C42.1904 27.7123 41.6582 28.2445 41.6582 28.9009C41.6582 29.5574 42.1904 30.0896 42.8468 30.0896C43.5032 30.0896 44.0355 29.5574 44.0355 28.9009C44.0355 28.2445 43.5032 27.7123 42.8468 27.7123Z" stroke="black" stroke-width="0.5" stroke-miterlimit="10" stroke-linecap="round" stroke-linejoin="round"/>
</g>
<g id="g2350">
<path id="path2352" d="M28.9658 20.5308C28.2788 20.5308 27.7219 21.0877 27.7219 21.7747C27.7219 22.4617 28.2788 23.0186 28.9658 23.0186C29.6529 23.0186 30.2097 22.4617 30.2097 21.7747C30.2097 21.0877 29.6529 20.5308 28.9658 20.5308Z" stroke="black" stroke-width="0.5" stroke-miterlimit="10" stroke-linecap="round" stroke-linejoin="round"/>
</g>
<g id="g2354">
<path id="path2356" d="M21.1257 22.8474C20.4388 22.8474 19.8818 23.4043 19.8818 24.0913C19.8818 24.7783 20.4388 25.3352 21.1257 25.3352C21.8128 25.3352 22.3697 24.7783 22.3697 24.0913C22.3697 23.4043 21.8128 22.8474 21.1257 22.8474Z" stroke="black" stroke-width="0.5" stroke-miterlimit="10" stroke-linecap="round" stroke-linejoin="round"/>
</g>
<g id="g2358">
<path id="path2360" d="M30.5596 26.5186L29.667 27.4111" stroke="black" stroke-width="0.5" stroke-miterlimit="10" stroke-linecap="round" stroke-linejoin="round"/>
</g>
<g id="g2362">
<path id="path2364" d="M23.9154 19.3917L23.0229 20.2842" stroke="black" stroke-width="0.5" stroke-miterlimit="10" stroke-linecap="round" stroke-linejoin="round"/>
</g>
<g id="g2366">
<path id="path2368" d="M24.8779 23.3865L25.7704 24.279" stroke="black" stroke-width="0.5" stroke-miterlimit="10" stroke-linecap="round" stroke-linejoin="round"/>
</g>
<g id="g2370">
<path id="path2372" d="M24.9696 28.0599L24.0771 28.9524" stroke="black" stroke-width="0.5" stroke-miterlimit="10" stroke-linecap="round" stroke-linejoin="round"/>
</g>
</g>
</g>
</g>
</g>
</g>
</g>
</svg>
