<svg width="24" height="25" viewBox="0 0 24 25" fill="none" xmlns="http://www.w3.org/2000/svg">
<path id="Vector" d="M12 0.0507812C9.62663 0.0507812 7.30655 0.754569 5.33316 2.07315C3.35977 3.39172 1.8217 5.26587 0.913451 7.45858C0.00519953 9.65129 -0.232441 12.0641 0.230582 14.3919C0.693604 16.7196 1.83649 18.8578 3.51472 20.5361C5.19295 22.2143 7.33115 23.3572 9.65892 23.8202C11.9867 24.2832 14.3995 24.0456 16.5922 23.1373C18.7849 22.2291 20.6591 20.691 21.9776 18.7176C23.2962 16.7442 24 14.4242 24 12.0508C23.9989 8.86851 22.7343 5.81688 20.4841 3.56667C18.2339 1.31646 15.1823 0.0518415 12 0.0507812ZM12 19.2508C11.6836 19.2508 11.3742 19.1569 11.1111 18.9811C10.848 18.8053 10.6429 18.5554 10.5218 18.2631C10.4007 17.9707 10.369 17.649 10.4307 17.3386C10.4925 17.0283 10.6449 16.7432 10.8686 16.5194C11.0924 16.2956 11.3775 16.1433 11.6879 16.0815C11.9982 16.0198 12.3199 16.0515 12.6123 16.1726C12.9047 16.2937 13.1545 16.4987 13.3304 16.7619C13.5062 17.025 13.6 17.3343 13.6 17.6508C13.5987 18.0747 13.4298 18.481 13.13 18.7808C12.8302 19.0805 12.424 19.2495 12 19.2508ZM13.832 6.84278L13.296 13.2588C13.2681 13.5832 13.1194 13.8854 12.8794 14.1056C12.6395 14.3258 12.3257 14.4479 12 14.4479C11.6743 14.4479 11.3605 14.3258 11.1206 14.1056C10.8806 13.8854 10.732 13.5832 10.704 13.2588L10.168 6.84278C10.1449 6.59426 10.1726 6.34364 10.2494 6.10617C10.3262 5.86869 10.4505 5.64932 10.6148 5.4614C10.779 5.27349 10.9798 5.12096 11.2049 5.01309C11.43 4.90522 11.6746 4.84427 11.924 4.83395C12.1734 4.82362 12.4222 4.86414 12.6555 4.95304C12.8887 5.04194 13.1014 5.17736 13.2806 5.35105C13.4598 5.52475 13.6019 5.73309 13.698 5.96341C13.7942 6.19373 13.8425 6.4412 13.84 6.69078C13.8413 6.74158 13.8387 6.7924 13.832 6.84278Z" fill="#737373"/>
</svg>
