<svg width="33" height="32" viewBox="0 0 33 32" fill="none" xmlns="http://www.w3.org/2000/svg">
<g id="video">
<g id="Group 1171275239">
<path id="Vector" d="M20.8947 26.2106H9.10526C7.94484 26.2106 7 25.2658 7 24.1054V9.78959C7 8.62917 7.94484 7.68433 9.10526 7.68433H20.8947C22.0552 7.68433 23 8.62917 23 9.78959V24.1054C23 25.2658 22.0552 26.2106 20.8947 26.2106ZM9.10526 8.52643C8.40884 8.52643 7.84211 9.09317 7.84211 9.78959V24.1054C7.84211 24.8018 8.40884 25.3685 9.10526 25.3685H20.8947C21.5912 25.3685 22.1579 24.8018 22.1579 24.1054V9.78959C22.1579 9.09317 21.5912 8.52643 20.8947 8.52643H9.10526Z" fill="#9CA3AF"/>
<path id="Vector_2" d="M10.7897 10.2105C10.5573 10.2105 10.3687 10.0219 10.3687 9.78947V6.42105C10.3687 6.18863 10.5573 6 10.7897 6C11.0221 6 11.2108 6.18863 11.2108 6.42105V9.78947C11.2108 10.0219 11.0221 10.2105 10.7897 10.2105Z" fill="#9CA3AF"/>
<path id="Vector_3" d="M15.4211 10.2105C15.1886 10.2105 15 10.0219 15 9.78947V6.42105C15 6.18863 15.1886 6 15.4211 6C15.6535 6 15.8421 6.18863 15.8421 6.42105V9.78947C15.8421 10.0219 15.6535 10.2105 15.4211 10.2105Z" fill="#9CA3AF"/>
<path id="Vector_4" d="M19.2106 10.2105C18.9782 10.2105 18.7896 10.0219 18.7896 9.78947V6.42105C18.7896 6.18863 18.9782 6 19.2106 6C19.443 6 19.6317 6.18863 19.6317 6.42105V9.78947C19.6317 10.0219 19.443 10.2105 19.2106 10.2105Z" fill="#9CA3AF"/>
<path id="Vector_5" d="M20.0529 21.1578H10.7897C10.5573 21.1578 10.3687 20.9691 10.3687 20.7367C10.3687 20.5043 10.5573 20.3157 10.7897 20.3157H20.0529C20.2853 20.3157 20.4739 20.5043 20.4739 20.7367C20.4739 20.9691 20.2853 21.1578 20.0529 21.1578Z" fill="#9CA3AF"/>
<path id="Vector_6" d="M20.0529 17.7894H10.7897C10.5573 17.7894 10.3687 17.6007 10.3687 17.3683C10.3687 17.1359 10.5573 16.9473 10.7897 16.9473H20.0529C20.2853 16.9473 20.4739 17.1359 20.4739 17.3683C20.4739 17.6007 20.2853 17.7894 20.0529 17.7894Z" fill="#9CA3AF"/>
<path id="Vector_7" d="M15.8423 14.421H10.7897C10.5573 14.421 10.3687 14.2323 10.3687 13.9999C10.3687 13.7675 10.5573 13.5789 10.7897 13.5789H15.8423C16.0748 13.5789 16.2634 13.7675 16.2634 13.9999C16.2634 14.2323 16.0748 14.421 15.8423 14.421Z" fill="#9CA3AF"/>
</g>
</g>
</svg>
