<svg width="12" height="16" viewBox="0 0 12 16" fill="none" xmlns="http://www.w3.org/2000/svg">
<path id="Vector" d="M4.90909 2.00001V14C4.90909 14.434 4.73669 14.8502 4.42981 15.1571C4.12293 15.464 3.70672 15.6364 3.27273 15.6364H1.63636C1.20237 15.6364 0.786158 15.464 0.47928 15.1571C0.172402 14.8502 0 14.434 0 14V2.00001C0 1.56602 0.172402 1.14981 0.47928 0.842927C0.786158 0.53605 1.20237 0.363647 1.63636 0.363647H3.27273C3.70672 0.363647 4.12293 0.53605 4.42981 0.842927C4.73669 1.14981 4.90909 1.56602 4.90909 2.00001ZM10.3636 0.363647H8.72727C8.29328 0.363647 7.87707 0.53605 7.57019 0.842927C7.26331 1.14981 7.09091 1.56602 7.09091 2.00001V14C7.09091 14.434 7.26331 14.8502 7.57019 15.1571C7.87707 15.464 8.29328 15.6364 8.72727 15.6364H10.3636C10.7976 15.6364 11.2138 15.464 11.5207 15.1571C11.8276 14.8502 12 14.434 12 14V2.00001C12 1.56602 11.8276 1.14981 11.5207 0.842927C11.2138 0.53605 10.7976 0.363647 10.3636 0.363647Z" fill="#737373"/>
</svg>
