<svg width="40" height="40" viewBox="0 0 40 40" fill="none" xmlns="http://www.w3.org/2000/svg">
<path id="Vector" fill-rule="evenodd" clip-rule="evenodd" d="M20 0C25.5227 0 30.5228 2.23865 34.1421 5.85794C37.7614 9.47722 40 14.4773 40 20C40 25.5227 37.7614 30.5228 34.1421 34.1421C30.5228 37.7614 25.5227 40 20 40C14.4773 40 9.47722 37.7614 5.85794 34.1421C2.23865 30.5228 0 25.5227 0 20C0 14.4773 2.23865 9.47722 5.85794 5.85794C9.47722 2.23865 14.4773 0 20 0ZM29.2406 20.8279C29.3856 20.747 29.5114 20.6269 29.6002 20.4725C29.8611 20.0184 29.7045 19.4387 29.2505 19.1779L22.3772 15.2096L15.5831 11.287C15.4275 11.1762 15.2371 11.1111 15.0315 11.1111C14.5056 11.1111 14.0791 11.5375 14.0791 12.0635V20V27.9365H14.0831C14.0829 28.0971 14.1236 28.2598 14.2093 28.409C14.4702 28.863 15.0498 29.0196 15.5039 28.7587L22.3771 24.7904L29.2406 20.8279Z" fill="url(#paint0_linear_5_23658)"/>
<defs>
<linearGradient id="paint0_linear_5_23658" x1="34.1421" y1="5.85794" x2="5.85794" y2="34.1421" gradientUnits="userSpaceOnUse">
<stop stop-color="#EF3E3D"/>
<stop offset="1" stop-color="#FFC828"/>
</linearGradient>
</defs>
</svg>
