<svg width="32" height="32" viewBox="0 0 32 32" fill="none" xmlns="http://www.w3.org/2000/svg">
<g id="folder">
<g id="Group 19707">
<path id="Vector" d="M16.8445 13.0222C16.7831 13.0222 16.7217 13.0091 16.6643 12.9823L15.2502 12.3266L13.8361 12.9823C13.6967 13.0473 13.5331 13.0328 13.4076 12.9427C13.282 12.8534 13.2139 12.7035 13.2296 12.5504L13.3987 10.8802L12.3696 9.86621C12.2603 9.7585 12.2167 9.60061 12.2558 9.45187C12.2949 9.30341 12.4104 9.18735 12.5588 9.14718L13.9612 8.76827L14.9004 7.4393C15.0611 7.21164 15.4395 7.21164 15.6001 7.4393L16.5393 8.76827L17.9417 9.14718C18.0901 9.18735 18.2056 9.30341 18.2447 9.45187C18.2838 9.60061 18.2403 9.7585 18.1309 9.86621L17.1019 10.8802L17.2709 12.5504C17.2865 12.7036 17.2185 12.8534 17.0929 12.9427C17.0193 12.9954 16.9321 13.0222 16.8445 13.0222ZM15.2502 11.4256C15.3116 11.4256 15.3735 11.439 15.4304 11.4655L16.3423 11.8882L16.2284 10.7624C16.2151 10.6332 16.2613 10.5051 16.354 10.4139L16.9974 9.77993L16.1665 9.5553C16.07 9.52907 15.9857 9.47021 15.9282 9.38873L15.2502 8.42918L14.5722 9.38873C14.5147 9.47021 14.4305 9.52907 14.3339 9.5553L13.503 9.77993L14.1464 10.4139C14.2391 10.5051 14.2854 10.6332 14.272 10.7624L14.1581 11.8882L15.07 11.4655C15.1269 11.439 15.1888 11.4256 15.2502 11.4256Z" fill="#9CA3AF"/>
<path id="Vector_2" d="M17.5356 25.258H12.9642C12.7276 25.258 12.5356 25.066 12.5356 24.8294V15.6865C12.5356 15.1352 12.9843 14.6865 13.5356 14.6865H16.9642C17.5155 14.6865 17.9642 15.1352 17.9642 15.6865V24.8294C17.9642 25.066 17.7723 25.258 17.5356 25.258ZM13.3928 24.4008H17.1071V15.6865C17.1071 15.6078 17.0429 15.5437 16.9642 15.5437H13.5356C13.457 15.5437 13.3928 15.6078 13.3928 15.6865V24.4008Z" fill="#9CA3AF"/>
<path id="Vector_3" d="M22.1069 25.2579H17.5355C17.2989 25.2579 17.1069 25.0659 17.1069 24.8293V17.4007C17.1069 17.1641 17.2989 16.9722 17.5355 16.9722H21.5355C22.0868 16.9722 22.5355 17.4209 22.5355 17.9722V24.8293C22.5355 25.0659 22.3436 25.2579 22.1069 25.2579ZM17.9641 24.4007H21.6784V17.9722C21.6784 17.8935 21.6142 17.8293 21.5355 17.8293H17.9641V24.4007Z" fill="#9CA3AF"/>
<path id="Vector_4" d="M12.9644 25.2581H8.39293C8.1563 25.2581 7.96436 25.0661 7.96436 24.8295V20.2581C7.96436 19.7067 8.41304 19.2581 8.96436 19.2581H12.9644C13.201 19.2581 13.3929 19.45 13.3929 19.6866V24.8295C13.3929 25.0661 13.201 25.2581 12.9644 25.2581ZM8.8215 24.4009H12.5358V20.1152H8.96436C8.88567 20.1152 8.8215 20.1794 8.8215 20.2581V24.4009Z" fill="#9CA3AF"/>
<path id="Vector_5" d="M23.8214 25.258H6.67857C6.44194 25.258 6.25 25.0661 6.25 24.8295C6.25 24.5928 6.44194 24.4009 6.67857 24.4009H23.8214C24.0581 24.4009 24.25 24.5928 24.25 24.8295C24.25 25.0661 24.0581 25.258 23.8214 25.258Z" fill="#9CA3AF"/>
</g>
</g>
</svg>
