<svg width="24" height="24" viewBox="0 0 24 24" fill="none" xmlns="http://www.w3.org/2000/svg">
<g id="Time">
<path id="Vector" d="M19.4615 23.5129H6.53846C5.86522 23.5129 5.21955 23.2455 4.7435 22.7694C4.26744 22.2934 4 21.6477 4 20.9744V6.20521C4 5.53197 4.26744 4.8863 4.7435 4.41025C5.21955 3.93419 5.86522 3.66675 6.53846 3.66675H19.4615C20.1348 3.66675 20.7804 3.93419 21.2565 4.41025C21.7326 4.8863 22 5.53197 22 6.20521V20.9744C22 21.6477 21.7326 22.2934 21.2565 22.7694C20.7804 23.2455 20.1348 23.5129 19.4615 23.5129ZM6.53846 5.05136C6.23244 5.05136 5.93896 5.17293 5.72257 5.38932C5.50618 5.60571 5.38462 5.89919 5.38462 6.20521V20.9744C5.38462 21.2805 5.50618 21.5739 5.72257 21.7903C5.93896 22.0067 6.23244 22.1283 6.53846 22.1283H19.4615C19.7676 22.1283 20.061 22.0067 20.2774 21.7903C20.4938 21.5739 20.6154 21.2805 20.6154 20.9744V6.20521C20.6154 5.89919 20.4938 5.60571 20.2774 5.38932C20.061 5.17293 19.7676 5.05136 19.4615 5.05136H6.53846ZM9.30769 10.156L11.6154 7.84829C11.7113 7.71631 11.7575 7.55471 11.7458 7.392C11.7342 7.22929 11.6655 7.07591 11.5518 6.95891C11.4381 6.84192 11.2868 6.76883 11.1245 6.75253C10.9621 6.73623 10.7993 6.77777 10.6646 6.86982L8.81846 8.71598L7.89538 7.7929C7.76058 7.71626 7.60395 7.68709 7.45059 7.71007C7.29724 7.73306 7.15604 7.80686 7.04962 7.91966C6.94321 8.03246 6.87775 8.17771 6.86373 8.33215C6.84971 8.48658 6.88795 8.64125 6.97231 8.77136L8.38462 10.156C8.51154 10.2695 8.67586 10.3323 8.84615 10.3323C9.01645 10.3323 9.18076 10.2695 9.30769 10.156ZM19.2308 8.74367C19.2284 8.5608 19.1547 8.3861 19.0254 8.25678C18.896 8.12746 18.7213 8.05375 18.5385 8.05136H13.9231C13.7395 8.05136 13.5634 8.1243 13.4335 8.25414C13.3037 8.38397 13.2308 8.56006 13.2308 8.74367C13.2308 8.92728 13.3037 9.10337 13.4335 9.23321C13.5634 9.36304 13.7395 9.43598 13.9231 9.43598H18.5385C18.7213 9.43359 18.896 9.35988 19.0254 9.23056C19.1547 9.10125 19.2284 8.92654 19.2308 8.74367ZM9.30769 15.2329L11.6154 12.9252C11.7377 12.794 11.8042 12.6204 11.8011 12.441C11.7979 12.2617 11.7253 12.0906 11.5984 11.9637C11.4716 11.8369 11.3005 11.7642 11.1211 11.761C10.9417 11.7579 10.7682 11.8245 10.6369 11.9467L8.79077 13.7929L7.86769 12.8698C7.73645 12.7475 7.56287 12.681 7.38352 12.6841C7.20416 12.6873 7.03304 12.7599 6.9062 12.8868C6.77935 13.0136 6.7067 13.1848 6.70353 13.3641C6.70037 13.5435 6.76694 13.717 6.88923 13.8483L8.38462 15.2329C8.51442 15.3625 8.69038 15.4354 8.87385 15.4354C9.05731 15.4354 9.23327 15.3625 9.36308 15.2329H9.30769ZM19.2031 13.8206C19.201 13.6424 19.1311 13.4716 19.0077 13.343C18.8842 13.2144 18.7165 13.1377 18.5385 13.1283H13.9231C13.7395 13.1283 13.5634 13.2012 13.4335 13.3311C13.3037 13.4609 13.2308 13.637 13.2308 13.8206C13.2308 14.0042 13.3037 14.1803 13.4335 14.3101C13.5634 14.44 13.7395 14.5129 13.9231 14.5129H18.5385C18.7213 14.5105 18.896 14.4368 19.0254 14.3075C19.1547 14.1782 19.2284 14.0035 19.2308 13.8206H19.2031ZM9.30769 20.3098L11.6154 18.0021C11.6834 17.9388 11.738 17.8623 11.7758 17.7774C11.8136 17.6925 11.834 17.6008 11.8356 17.5078C11.8373 17.4149 11.8202 17.3226 11.7853 17.2364C11.7505 17.1501 11.6987 17.0718 11.633 17.0061C11.5672 16.9404 11.4889 16.8885 11.4027 16.8537C11.3165 16.8189 11.2242 16.8018 11.1312 16.8034C11.0383 16.8051 10.9466 16.8254 10.8617 16.8633C10.7767 16.9011 10.7003 16.9557 10.6369 17.0237L8.79077 18.8698L7.86769 17.9467C7.73645 17.8245 7.56287 17.7579 7.38352 17.761C7.20416 17.7642 7.03304 17.8369 6.9062 17.9637C6.77935 18.0906 6.7067 18.2617 6.70353 18.441C6.70037 18.6204 6.76694 18.794 6.88923 18.9252L8.38462 20.3098C8.51442 20.4395 8.69038 20.5123 8.87385 20.5123C9.05731 20.5123 9.23327 20.4395 9.36308 20.3098H9.30769ZM19.2031 18.8975C19.201 18.7193 19.1311 18.5485 19.0077 18.4199C18.8842 18.2914 18.7165 18.2146 18.5385 18.2052H13.9231C13.7395 18.2052 13.5634 18.2781 13.4335 18.408C13.3037 18.5378 13.2308 18.7139 13.2308 18.8975C13.2308 19.0811 13.3037 19.2572 13.4335 19.3871C13.5634 19.5169 13.7395 19.5898 13.9231 19.5898H18.5385C18.7213 19.5874 18.896 19.5137 19.0254 19.3844C19.1547 19.2551 19.2284 19.0804 19.2308 18.8975H19.2031Z" fill="black"/>
</g>
</svg>
