<svg width="24" height="25" viewBox="0 0 24 25" fill="none" xmlns="http://www.w3.org/2000/svg">
<g id="Layer 19">
<path id="Vector" d="M12 24.0508C18.6274 24.0508 24 18.6782 24 12.0508C24 5.42336 18.6274 0.0507812 12 0.0507812C5.37258 0.0507812 0 5.42336 0 12.0508C0 18.6782 5.37258 24.0508 12 24.0508Z" fill="#FFCC00"/>
<path id="Vector_2" d="M16.2193 14.7614L13.5087 12.0508L16.2193 9.3402C16.3184 9.24115 16.3969 9.12357 16.4505 8.99415C16.5041 8.86474 16.5317 8.72603 16.5317 8.58595C16.5317 8.44588 16.5041 8.30717 16.4505 8.17776C16.3969 8.04834 16.3184 7.93076 16.2193 7.83171C16.1203 7.73266 16.0027 7.65409 15.8733 7.60048C15.7438 7.54688 15.6051 7.51929 15.4651 7.51929C15.325 7.51929 15.1863 7.54688 15.0569 7.60048C14.9275 7.65409 14.8099 7.73266 14.7108 7.83171L12.0002 10.5423L9.28967 7.83171C9.19062 7.73266 9.07303 7.65409 8.94361 7.60048C8.8142 7.54688 8.67549 7.51929 8.53542 7.51929C8.39534 7.51929 8.25664 7.54688 8.12722 7.60048C7.99781 7.65409 7.88022 7.73266 7.78117 7.83171C7.68212 7.93076 7.60355 8.04834 7.54995 8.17776C7.49634 8.30717 7.46875 8.44588 7.46875 8.58595C7.46875 8.72603 7.49634 8.86474 7.54995 8.99415C7.60355 9.12357 7.68212 9.24115 7.78117 9.3402L10.4917 12.0508L7.78117 14.7614C7.68212 14.8604 7.60355 14.978 7.54995 15.1074C7.49634 15.2368 7.46875 15.3755 7.46875 15.5156C7.46875 15.6557 7.49634 15.7944 7.54995 15.9238C7.60355 16.0532 7.68212 16.1708 7.78117 16.2699C7.88022 16.3689 7.99781 16.4475 8.12722 16.5011C8.25664 16.5547 8.39534 16.5823 8.53542 16.5823C8.67549 16.5823 8.8142 16.5547 8.94361 16.5011C9.07303 16.4475 9.19062 16.3689 9.28967 16.2699L12.0002 13.5593L14.7108 16.2699C14.8099 16.3689 14.9275 16.4475 15.0569 16.5011C15.1863 16.5547 15.325 16.5823 15.4651 16.5823C15.6051 16.5823 15.7438 16.5547 15.8733 16.5011C16.0027 16.4475 16.1203 16.3689 16.2193 16.2699C16.3184 16.1708 16.3969 16.0532 16.4505 15.9238C16.5041 15.7944 16.5317 15.6557 16.5317 15.5156C16.5317 15.3755 16.5041 15.2368 16.4505 15.1074C16.3969 14.978 16.3184 14.8604 16.2193 14.7614Z" fill="white"/>
</g>
</svg>
