<svg width="33" height="32" viewBox="0 0 33 32" fill="none" xmlns="http://www.w3.org/2000/svg">
<g id="user">
<g id="Group 3">
<path id="Vector" d="M12.0541 11.2886C12.0392 11.7412 12.1135 12.1923 12.2728 12.6161C12.4322 13.0399 12.6735 13.4282 12.9829 13.7588C13.2923 14.0894 13.6638 14.3558 14.0762 14.5429C14.4886 14.7299 14.9337 14.8338 15.3863 14.8488C15.8388 14.8638 16.2899 14.7895 16.7138 14.6301C17.1376 14.4708 17.5259 14.2295 17.8565 13.9201C18.1871 13.6106 18.4535 13.2391 18.6405 12.8268C18.8275 12.4144 18.9315 11.9692 18.9465 11.5166C18.9614 11.0641 18.8871 10.613 18.7278 10.1892C18.5684 9.76534 18.3271 9.37704 18.0177 9.04645C17.7083 8.71586 17.3368 8.44945 16.9244 8.26243C16.512 8.07541 16.0669 7.97145 15.6143 7.95648C15.1617 7.9415 14.7107 8.01582 14.2868 8.17517C13.863 8.33452 13.4747 8.5758 13.1441 8.88522C12.8135 9.19464 12.5471 9.56614 12.3601 9.97852C12.1731 10.3909 12.0691 10.8361 12.0541 11.2886Z" stroke="#9CA3AF" stroke-width="1.5" stroke-linecap="round" stroke-linejoin="round"/>
<path id="Vector_2" d="M22.3962 24.0454C21.8313 22.6846 20.8745 21.5214 19.647 20.7031C18.4195 19.8848 16.9764 19.448 15.5001 19.448C14.0238 19.448 12.5807 19.8848 11.3532 20.7031C10.1257 21.5214 9.16896 22.6846 8.604 24.0454" stroke="#9CA3AF" stroke-width="1.5" stroke-linecap="round" stroke-linejoin="round"/>
</g>
</g>
</svg>
