<svg width="20" height="12" viewBox="0 0 20 12" fill="none" xmlns="http://www.w3.org/2000/svg">
<g id="Group 19709">
<g id="Group">
<g id="Group_2">
<path id="Vector" d="M11.3128 0H2.18816C0.984674 0 0 0.984674 0 2.18816V9.56228C0 10.7658 0.984674 11.7504 2.18816 11.7504H11.3128C12.5163 11.7504 13.501 10.7658 13.501 9.56228V2.18816C13.501 0.962792 12.5163 0 11.3128 0Z" fill="black"/>
</g>
</g>
<g id="Group_3">
<g id="Group_4">
<path id="Vector_2" d="M18.3807 1.20334C18.2494 1.22522 18.1182 1.29086 18.0088 1.35651L14.5952 3.32586V8.4024L18.0306 10.3717C18.6652 10.7437 19.4529 10.5249 19.8249 9.89035C19.9343 9.69341 20 9.4746 20 9.2339V2.47247C20 1.66285 19.2341 1.0064 18.3807 1.20334Z" fill="black"/>
</g>
</g>
</g>
</svg>
