<svg width="18" height="18" viewBox="0 0 18 18" fill="none" xmlns="http://www.w3.org/2000/svg">
<path d="M16.0714 0H1.92857C0.865286 0 0 0.865286 0 1.92857V10.9286C0 11.9919 0.865286 12.8571 1.92857 12.8571H16.0714C17.1347 12.8571 18 11.9919 18 10.9286V1.92857C18 0.865286 17.1347 0 16.0714 0ZM16.7143 10.9286C16.7143 11.2834 16.4256 11.5714 16.0714 11.5714H1.92857C1.57436 11.5714 1.28571 11.2834 1.28571 10.9286V1.92857C1.28571 1.57436 1.57436 1.28571 1.92857 1.28571H16.0714C16.4256 1.28571 16.7143 1.57436 16.7143 1.92857V10.9286ZM17.3571 15.4286H5.02457C4.75843 14.6822 4.05129 14.1429 3.21429 14.1429C2.37729 14.1429 1.67014 14.6822 1.404 15.4286H0.642857C0.288 15.4286 0 15.7159 0 16.0714C0 16.4269 0.288 16.7143 0.642857 16.7143H1.404C1.67014 17.4606 2.37729 18 3.21429 18C4.05129 18 4.75843 17.4606 5.02457 16.7143H17.3571C17.712 16.7143 18 16.4269 18 16.0714C18 15.7159 17.712 15.4286 17.3571 15.4286ZM3.21429 16.7143C2.86007 16.7143 2.57143 16.4263 2.57143 16.0714C2.57143 15.7166 2.86007 15.4286 3.21429 15.4286C3.5685 15.4286 3.85714 15.7166 3.85714 16.0714C3.85714 16.4263 3.5685 16.7143 3.21429 16.7143ZM7.71429 9.67821C7.49893 9.67821 7.28357 9.62486 7.08879 9.51621C6.68186 9.28929 6.42921 8.85921 6.42921 8.39314V4.46529C6.42921 3.99921 6.6825 3.5685 7.08879 3.34221C7.49571 3.11529 7.99521 3.12686 8.39057 3.37179L11.5656 5.33571C11.9475 5.57229 12.1751 5.9805 12.1751 6.42921C12.1751 6.87793 11.9475 7.28614 11.5663 7.52271L8.39121 9.48729C8.18486 9.61521 7.94957 9.67886 7.71493 9.67886L7.71429 9.67821ZM7.71107 4.46271L7.71429 8.3925L10.8894 6.42857L7.71107 4.46271Z" fill="#5C5C5C"/>
</svg>
